<svg width="76" height="76" viewBox="0 0 76 76" fill="none" xmlns="http://www.w3.org/2000/svg">
<g clip-path="url(#clip0_114_238)">
<path d="M53.4951 38.4336C53.4951 30.3485 47.212 25.8313 41.6684 21.8458C40.9423 21.3238 40.2383 20.8171 39.5659 20.3154C40.2699 19.7456 41.0041 19.1706 41.7731 18.5693C47.2675 14.2728 53.4951 9.40273 53.4951 2.10547C53.4951 1.79467 53.3717 1.4966 53.1519 1.27683C52.9321 1.05706 52.634 0.933594 52.3232 0.933594C52.0124 0.933594 51.7144 1.05706 51.4946 1.27683C51.2748 1.4966 51.1514 1.79467 51.1514 2.10547C51.1514 8.2603 45.4019 12.7562 40.3294 16.723C39.4004 17.4494 38.5213 18.138 37.6747 18.834C36.7873 18.1049 35.8643 17.3872 34.889 16.6303C29.6328 12.5513 24.1982 8.33325 24.1982 2.10547C24.1982 1.79467 24.0748 1.4966 23.855 1.27683C23.6352 1.05706 23.3372 0.933594 23.0264 0.933594C22.7156 0.933594 22.4175 1.05706 22.1977 1.27683C21.978 1.4966 21.8545 1.79467 21.8545 2.10547C21.8545 9.4811 28.0159 14.2628 33.452 18.4824C34.2642 19.1123 35.0391 19.7152 35.7811 20.3135C35.0892 20.8262 34.3643 21.3438 33.6159 21.8771C28.1028 25.8044 21.8545 30.2557 21.8545 38.4336C21.8545 45.8092 28.0159 50.5909 33.452 54.8105C34.2642 55.4404 35.0391 56.0434 35.7811 56.6416C35.0892 57.1543 34.3643 57.672 33.6159 58.2052C28.1028 62.1326 21.8545 66.5838 21.8545 74.7617C21.8545 75.0725 21.978 75.3706 22.1977 75.5904C22.4175 75.8101 22.7156 75.9336 23.0264 75.9336C23.3372 75.9336 23.6352 75.8101 23.855 75.5904C24.0748 75.3706 24.1982 75.0725 24.1982 74.7617C24.1982 67.7918 29.6768 63.8886 34.9754 60.1142C35.9129 59.446 36.8164 58.8018 37.6733 58.152C38.5083 58.7879 39.3872 59.4206 40.3002 60.0768C45.6351 63.9122 51.1514 67.8781 51.1514 74.7617C51.1514 75.0725 51.2748 75.3706 51.4946 75.5904C51.7144 75.8101 52.0124 75.9336 52.3232 75.9336C52.634 75.9336 52.9321 75.8101 53.1519 75.5904C53.3717 75.3706 53.4951 75.0725 53.4951 74.7617C53.4951 66.6767 47.212 62.1594 41.6684 58.174C40.9423 57.6519 40.2383 57.1452 39.5659 56.6435C40.2699 56.0737 41.0041 55.4987 41.7731 54.8974C47.2675 50.6009 53.4951 45.7309 53.4951 38.4336ZM37.6748 55.1621C36.7874 54.4331 35.8644 53.7153 34.8891 52.9584C29.6328 48.8794 24.1982 44.6614 24.1982 38.4336C24.1982 31.4637 29.6768 27.5605 34.9754 23.786C35.9129 23.1179 36.8164 22.4737 37.6733 21.8231C38.5083 22.459 39.3872 23.0917 40.3002 23.7479C45.6351 27.5841 51.1514 31.55 51.1514 38.4336C51.1514 44.5884 45.4019 49.0843 40.3294 53.0511C39.4004 53.7775 38.5213 54.4662 37.6748 55.1621Z" fill="white"/>
<path d="M39.916 48.1685H35.4336C35.1228 48.1685 34.8247 48.2919 34.605 48.5117C34.3852 48.7315 34.2617 49.0295 34.2617 49.3403C34.2617 49.6511 34.3852 49.9492 34.605 50.169C34.8247 50.3887 35.1228 50.5122 35.4336 50.5122H39.916C40.2268 50.5122 40.5249 50.3887 40.7447 50.169C40.9644 49.9492 41.0879 49.6511 41.0879 49.3403C41.0879 49.0295 40.9644 48.7315 40.7447 48.5117C40.5249 48.2919 40.2268 48.1685 39.916 48.1685Z" fill="white"/>
<path d="M44.2641 42.772H31.0854C30.7746 42.772 30.4766 42.8954 30.2568 43.1152C30.037 43.335 29.9136 43.633 29.9136 43.9438C29.9136 44.2546 30.037 44.5527 30.2568 44.7725C30.4766 44.9923 30.7746 45.1157 31.0854 45.1157H44.2641C44.5749 45.1157 44.8729 44.9923 45.0927 44.7725C45.3125 44.5527 45.4359 44.2546 45.4359 43.9438C45.4359 43.633 45.3125 43.335 45.0927 43.1152C44.8729 42.8954 44.5749 42.772 44.2641 42.772Z" fill="white"/>
<path d="M47.9488 38.5474C47.9488 38.2366 47.8254 37.9385 47.6056 37.7187C47.3858 37.499 47.0878 37.3755 46.777 37.3755H28.5728C28.262 37.3755 27.9639 37.499 27.7441 37.7187C27.5243 37.9385 27.4009 38.2366 27.4009 38.5474C27.4009 38.8582 27.5243 39.1562 27.7441 39.376C27.9639 39.5958 28.262 39.7192 28.5728 39.7192H46.777C47.0878 39.7192 47.3858 39.5958 47.6056 39.376C47.8254 39.1562 47.9488 38.8582 47.9488 38.5474Z" fill="white"/>
<path d="M35.4336 28.9268H39.916C40.2268 28.9268 40.5249 28.8033 40.7447 28.5835C40.9644 28.3638 41.0879 28.0657 41.0879 27.7549C41.0879 27.4441 40.9644 27.146 40.7447 26.9262C40.5249 26.7065 40.2268 26.583 39.916 26.583H35.4336C35.1228 26.583 34.8247 26.7065 34.605 26.9262C34.3852 27.146 34.2617 27.4441 34.2617 27.7549C34.2617 28.0657 34.3852 28.3638 34.605 28.5835C34.8247 28.8033 35.1228 28.9268 35.4336 28.9268Z" fill="white"/>
<path d="M31.0854 34.3228H44.2641C44.5749 34.3228 44.8729 34.1993 45.0927 33.9795C45.3125 33.7598 45.4359 33.4617 45.4359 33.1509C45.4359 32.8401 45.3125 32.542 45.0927 32.3222C44.8729 32.1025 44.5749 31.979 44.2641 31.979H31.0854C30.7746 31.979 30.4766 32.1025 30.2568 32.3222C30.037 32.542 29.9136 32.8401 29.9136 33.1509C29.9136 33.4617 30.037 33.7598 30.2568 33.9795C30.4766 34.1993 30.7746 34.3228 31.0854 34.3228Z" fill="white"/>
<path d="M39.916 65.2549C40.2268 65.2549 40.5249 65.1314 40.7447 64.9116C40.9644 64.6919 41.0879 64.3938 41.0879 64.083C41.0879 63.7722 40.9644 63.4741 40.7447 63.2544C40.5249 63.0346 40.2268 62.9111 39.916 62.9111H35.4336C35.1228 62.9111 34.8247 63.0346 34.605 63.2544C34.3852 63.4741 34.2617 63.7722 34.2617 64.083C34.2617 64.3938 34.3852 64.6919 34.605 64.9116C34.8247 65.1314 35.1228 65.2549 35.4336 65.2549H39.916Z" fill="white"/>
<path d="M44.2641 68.3071H31.0854C30.7746 68.3071 30.4766 68.4306 30.2568 68.6504C30.037 68.8701 29.9136 69.1682 29.9136 69.479C29.9136 69.7898 30.037 70.0879 30.2568 70.3076C30.4766 70.5274 30.7746 70.6509 31.0854 70.6509H44.2641C44.5749 70.6509 44.8729 70.5274 45.0927 70.3076C45.3125 70.0879 45.4359 69.7898 45.4359 69.479C45.4359 69.1682 45.3125 68.8701 45.0927 68.6504C44.8729 68.4306 44.5749 68.3071 44.2641 68.3071Z" fill="white"/>
<path d="M35.4336 11.8403C35.1228 11.8403 34.8247 11.9638 34.605 12.1836C34.3852 12.4033 34.2617 12.7014 34.2617 13.0122C34.2617 13.323 34.3852 13.6211 34.605 13.8408C34.8247 14.0606 35.1228 14.1841 35.4336 14.1841H39.916C40.2268 14.1841 40.5249 14.0606 40.7447 13.8408C40.9644 13.6211 41.0879 13.323 41.0879 13.0122C41.0879 12.7014 40.9644 12.4033 40.7447 12.1836C40.5249 11.9638 40.2268 11.8403 39.916 11.8403H35.4336Z" fill="white"/>
<path d="M31.0854 8.7876H44.2641C44.5749 8.7876 44.8729 8.66413 45.0927 8.44436C45.3125 8.22459 45.4359 7.92652 45.4359 7.61572C45.4359 7.30492 45.3125 7.00685 45.0927 6.78708C44.8729 6.56731 44.5749 6.44385 44.2641 6.44385H31.0854C30.7746 6.44385 30.4766 6.56731 30.2568 6.78708C30.037 7.00685 29.9136 7.30492 29.9136 7.61572C29.9136 7.92652 30.037 8.22459 30.2568 8.44436C30.4766 8.66413 30.7746 8.7876 31.0854 8.7876Z" fill="white"/>
</g>
<defs>
<clipPath id="clip0_114_238">
<rect width="75" height="75" fill="white" transform="translate(0.174805 0.933594)"/>
</clipPath>
</defs>
</svg>
