<svg width="27" height="26" viewBox="0 0 27 26" fill="none" xmlns="http://www.w3.org/2000/svg">
<path d="M13.751 0.0761719C6.59332 0.0761719 0.791016 5.87847 0.791016 13.0362C0.791016 20.1939 6.59332 25.9962 13.751 25.9962C20.9087 25.9962 26.711 20.1939 26.711 13.0362C26.711 5.87847 20.9087 0.0761719 13.751 0.0761719ZM10.5785 18.4078H7.95412V9.96222H10.5785V18.4078ZM9.25012 8.92542C8.42122 8.92542 7.88527 8.33817 7.88527 7.61187C7.88527 6.87072 8.43742 6.30102 9.28387 6.30102C10.1303 6.30102 10.6487 6.87072 10.6649 7.61187C10.6649 8.33817 10.1303 8.92542 9.25012 8.92542ZM20.1635 18.4078H17.5391V13.7274C17.5391 12.6379 17.1584 11.8981 16.2094 11.8981C15.4844 11.8981 15.0538 12.399 14.8634 12.8809C14.7932 13.0524 14.7757 13.2954 14.7757 13.537V18.4065H12.1499V12.6555C12.1499 11.6011 12.1162 10.7196 12.0811 9.96087H14.3612L14.4814 11.134H14.534C14.8796 10.5832 15.7261 9.77052 17.1422 9.77052C18.8689 9.77052 20.1635 10.9275 20.1635 13.4142V18.4078Z" fill="black"/>
</svg>
