<svg width="27" height="26" viewBox="0 0 27 26" fill="none" xmlns="http://www.w3.org/2000/svg">
<path d="M17.676 13.0362C17.676 14.1103 17.2493 15.1404 16.4898 15.9C15.7303 16.6595 14.7001 17.0862 13.626 17.0862C12.5519 17.0862 11.5218 16.6595 10.7622 15.9C10.0027 15.1404 9.57602 14.1103 9.57602 13.0362C9.57602 12.8053 9.60032 12.5799 9.64217 12.3612H8.22602V17.7571C8.22602 18.1324 8.52977 18.4362 8.90507 18.4362H18.3483C18.5282 18.4358 18.7006 18.3641 18.8276 18.2368C18.9547 18.1095 19.026 17.937 19.026 17.7571V12.3612H17.6099C17.6517 12.5799 17.676 12.8053 17.676 13.0362ZM13.626 15.7362C13.9807 15.7361 14.3318 15.6661 14.6595 15.5303C14.9871 15.3945 15.2848 15.1955 15.5355 14.9447C15.7862 14.6938 15.9851 14.3961 16.1207 14.0684C16.2563 13.7407 16.3261 13.3895 16.326 13.0348C16.3259 12.6802 16.256 12.329 16.1202 12.0014C15.9844 11.6737 15.7854 11.3761 15.5345 11.1254C15.2837 10.8746 14.9859 10.6758 14.6582 10.5401C14.3305 10.4045 13.9793 10.3347 13.6247 10.3348C12.9084 10.335 12.2215 10.6197 11.7152 11.1263C11.2089 11.6329 10.9245 12.3199 10.9247 13.0362C10.9248 13.7524 11.2096 14.4393 11.7162 14.9456C12.2228 15.452 12.9098 15.7364 13.626 15.7362ZM16.866 10.2012H18.4847C18.5922 10.2012 18.6954 10.1585 18.7715 10.0826C18.8477 10.0067 18.8907 9.90371 18.891 9.79617V8.17752C18.891 8.06975 18.8482 7.9664 18.772 7.89019C18.6958 7.81398 18.5924 7.77117 18.4847 7.77117H16.866C16.7582 7.77117 16.6549 7.81398 16.5787 7.89019C16.5025 7.9664 16.4597 8.06975 16.4597 8.17752V9.79617C16.461 10.0189 16.6433 10.2012 16.866 10.2012ZM13.626 0.0761719C10.1888 0.0761719 6.89238 1.4416 4.46191 3.87207C2.03144 6.30254 0.666016 9.59897 0.666016 13.0362C0.666016 16.4734 2.03144 19.7698 4.46191 22.2003C6.89238 24.6308 10.1888 25.9962 13.626 25.9962C15.328 25.9962 17.0132 25.661 18.5856 25.0097C20.158 24.3584 21.5867 23.4037 22.7901 22.2003C23.9936 20.9968 24.9482 19.5681 25.5995 17.9958C26.2508 16.4234 26.586 14.7381 26.586 13.0362C26.586 11.3342 26.2508 9.64898 25.5995 8.0766C24.9482 6.50422 23.9936 5.07552 22.7901 3.87207C21.5867 2.66862 20.158 1.71399 18.5856 1.06269C17.0132 0.411392 15.328 0.0761719 13.626 0.0761719ZM20.376 18.2863C20.376 19.1112 19.701 19.7862 18.8762 19.7862H8.37587C7.55102 19.7862 6.87602 19.1112 6.87602 18.2863V7.78602C6.87602 6.96117 7.55102 6.28617 8.37587 6.28617H18.8762C19.701 6.28617 20.376 6.96117 20.376 7.78602V18.2863Z" fill="black"/>
</svg>
