<svg width="66" height="67" viewBox="0 0 66 67" fill="none" xmlns="http://www.w3.org/2000/svg">
<g clip-path="url(#clip0_114_647)">
<path d="M62.9771 24.4797H56.7917V18.3102C56.7917 17.4065 56.0558 16.6712 55.1512 16.6712H51.9272V15.0174C51.9272 6.77376 45.2063 0.0668945 36.9453 0.0668945C28.6844 0.0668945 21.9637 6.77376 21.9637 15.0174V18.1697C21.9637 18.7036 22.3966 19.1365 22.9305 19.1365C23.4645 19.1365 23.8973 18.7036 23.8973 18.1697V15.0174C23.8973 7.83994 29.7506 2.00049 36.9453 2.00049C44.1401 2.00049 49.9936 7.83994 49.9936 15.0174V16.6712H47.3976C46.4929 16.6712 45.757 17.4065 45.757 18.3102V24.4797H39.5757C38.671 24.4797 37.9351 25.215 37.9351 26.1187V29.0182H23.8973V22.807C23.8973 22.2731 23.4645 21.8402 22.9305 21.8402C22.3966 21.8402 21.9637 22.2731 21.9637 22.807V33.6102C20.6627 33.2805 19.3009 33.1047 17.8985 33.1047C8.79183 33.1047 1.38281 40.4981 1.38281 49.5858C1.38281 58.6736 8.7917 66.0669 17.8984 66.0669C23.55 66.0669 28.5471 63.2201 31.5268 58.889C33.2559 59.5645 35.0748 59.9067 36.9452 59.9067C40.1917 59.9067 43.2861 58.8762 45.8943 56.9267C46.3218 56.607 46.4095 56.0011 46.0898 55.5734C45.7703 55.1458 45.1643 55.0583 44.7367 55.3779C42.4654 57.0757 39.7711 57.973 36.9453 57.973C35.4299 57.973 33.9536 57.7151 32.5428 57.2054C33.7396 54.9251 34.4179 52.3331 34.4179 49.5856C34.4179 42.608 30.049 36.6299 23.8972 34.2295V30.9514H37.935V33.8546C37.935 34.7563 38.6709 35.4899 39.5755 35.4899H45.757V41.6594C45.757 42.5632 46.4929 43.2984 47.3976 43.2984H49.9936V44.9559C49.9936 47.599 49.1925 50.1506 47.6767 52.3346C47.3723 52.7733 47.4811 53.3757 47.9198 53.6802C48.088 53.7968 48.2799 53.8528 48.4702 53.8528C48.7764 53.8528 49.0776 53.7078 49.2654 53.437C51.0068 50.9276 51.9272 47.9949 51.9272 44.9559V43.2984H55.1512C56.0558 43.2984 56.7917 42.5632 56.7917 41.6594V35.4899H62.9771C63.8817 35.4899 64.6176 34.7563 64.6176 33.8546V26.1183C64.6175 25.2148 63.8816 24.4797 62.9771 24.4797ZM17.8984 35.0383C21.5516 35.0383 24.8953 36.3849 27.4571 38.6064L17.9051 47.0624C17.5814 46.4762 17.3357 45.7024 17.1928 44.6539C17.0074 43.3028 16.1564 42.254 14.9163 41.8485C13.7257 41.4591 12.4633 41.7585 11.6213 42.6294C10.9812 43.2915 10.0684 44.8439 11.1476 47.802C11.6704 49.2334 12.2594 50.4261 12.9661 51.4346L5.83407 57.7483C4.24569 55.4192 3.31628 52.6088 3.31628 49.5857C3.31641 41.5643 9.85788 35.0383 17.8984 35.0383ZM14.4302 50.1387C13.8689 49.3048 13.3953 48.3197 12.9641 47.1391C12.4395 45.7011 12.4568 44.5473 13.0117 43.9734C13.2375 43.7398 13.5492 43.6157 13.8808 43.6157C14.0237 43.6157 14.1706 43.6389 14.3156 43.6862C14.5653 43.7678 15.1588 44.0513 15.2774 44.9157C15.4835 46.4283 15.9005 47.5356 16.436 48.3632L14.4302 50.1387ZM17.761 49.7724C18.6806 50.4438 19.7015 50.7441 20.5784 51.0008C21.2892 51.209 21.903 51.3889 22.2887 51.7063C22.8247 52.1485 23.0049 52.9729 22.6902 53.5439C22.3122 54.2301 21.2711 54.3719 19.9055 53.9234C19.9052 53.9234 19.905 53.9233 19.9047 53.9232C18.1071 53.3344 16.7546 52.618 15.6806 51.6141L17.761 49.7724ZM17.8984 64.1333C13.5838 64.1333 9.70152 62.2536 7.02942 59.2726L14.2168 52.9098C15.5091 54.1634 17.1416 55.0529 19.3023 55.7607C20.0854 56.0179 20.7588 56.1216 21.3354 56.1216C23.2895 56.1216 24.1343 54.9299 24.3837 54.4771C25.15 53.086 24.7784 51.2536 23.5183 50.2143C22.8264 49.6445 21.9599 49.3907 21.1217 49.1452C20.4551 48.9501 19.8218 48.7637 19.2612 48.4442L28.8337 39.9702C31.1042 42.5357 32.4843 45.9029 32.4843 49.5858C32.4844 57.6073 25.9413 64.1333 17.8984 64.1333ZM62.6839 33.5566H55.8248C55.2908 33.5566 54.858 33.9895 54.858 34.5234V41.3651H47.6906V34.5234C47.6906 33.9895 47.2578 33.5566 46.7238 33.5566H39.8685V26.4133H46.7238C47.2578 26.4133 47.6906 25.9804 47.6906 25.4465V18.6048H54.858V25.4465C54.858 25.9804 55.2908 26.4133 55.8248 26.4133H62.6839V33.5566Z" fill="#A40F79"/>
<path d="M19.7104 41.7263H19.7409C20.2748 41.7263 20.7077 41.2935 20.7077 40.7595C20.7077 40.2256 20.2748 39.7927 19.7409 39.7927H19.7104C19.1765 39.7927 18.7437 40.2256 18.7437 40.7595C18.7437 41.2935 19.1765 41.7263 19.7104 41.7263Z" fill="#A40F79"/>
<path d="M25.4235 46.6365H25.3931C24.8591 46.6365 24.4263 47.0693 24.4263 47.6033C24.4263 48.1372 24.8591 48.5701 25.3931 48.5701H25.4235C25.9574 48.5701 26.3903 48.1372 26.3903 47.6033C26.3903 47.0693 25.9574 46.6365 25.4235 46.6365Z" fill="#A40F79"/>
<path d="M14.7809 57.9695H14.7505C14.2166 57.9695 13.7837 58.4023 13.7837 58.9363C13.7837 59.4702 14.2166 59.9031 14.7505 59.9031H14.7809C15.3148 59.9031 15.7477 59.4702 15.7477 58.9363C15.7477 58.4023 15.3148 57.9695 14.7809 57.9695Z" fill="#A40F79"/>
<path d="M7.60986 49.3069H7.64029C8.17421 49.3069 8.60708 48.874 8.60708 48.3401C8.60708 47.8062 8.17421 47.3733 7.64029 47.3733H7.60986C7.07593 47.3733 6.64307 47.8062 6.64307 48.3401C6.64307 48.874 7.07593 49.3069 7.60986 49.3069Z" fill="#A40F79"/>
<path d="M15.1924 39.3943H15.2228C15.7567 39.3943 16.1896 38.9614 16.1896 38.4275C16.1896 37.8936 15.7567 37.4607 15.2228 37.4607H15.1924C14.6585 37.4607 14.2256 37.8936 14.2256 38.4275C14.2256 38.9614 14.6585 39.3943 15.1924 39.3943Z" fill="#A40F79"/>
<path d="M21.758 57.9695H21.7275C21.1936 57.9695 20.7607 58.4023 20.7607 58.9363C20.7607 59.4702 21.1936 59.9031 21.7275 59.9031H21.758C22.2919 59.9031 22.7248 59.4702 22.7248 58.9363C22.7248 58.4023 22.2919 57.9695 21.758 57.9695Z" fill="#A40F79"/>
</g>
<defs>
<clipPath id="clip0_114_647">
<rect width="66" height="66" fill="white" transform="translate(0 0.0668945)"/>
</clipPath>
</defs>
</svg>
