<svg width="67" height="69" viewBox="0 0 67 69" fill="none" xmlns="http://www.w3.org/2000/svg">
<path d="M60.1186 54.0046C63.3663 54.0046 65.9996 56.6392 65.9996 59.8869C65.9996 63.1359 63.3663 65.7692 60.1186 65.7692C56.8709 65.7692 54.2377 63.1373 54.2363 59.8896M59.7664 61.7021L59.7716 61.6822" stroke="#A40F79" stroke-width="2" stroke-miterlimit="10" stroke-linecap="round" stroke-linejoin="round"/>
<path d="M7.5596 51.7553C12.9139 60.9678 22.891 67.1626 34.3151 67.1626C50.6467 67.1626 64.0191 54.5016 65.1589 38.46M4.83192 45.5924C3.89565 42.6413 3.3916 39.4987 3.3916 36.239C3.3916 19.9195 16.0326 6.55499 32.0569 5.39795M43.1605 6.60021C41.0526 5.97248 38.8489 5.56286 36.5787 5.39795M52.8131 11.4571C59.7793 16.6651 64.4766 24.7431 65.1536 33.9383" stroke="#A40F79" stroke-width="2" stroke-miterlimit="10" stroke-linecap="round" stroke-linejoin="round"/>
<path d="M18.1631 55.8605C19.9184 56.5546 21.9268 56.4147 23.5793 55.4391C24.4385 54.9319 25.4901 54.8951 26.4115 55.2783L26.4454 55.2924C27.365 55.6729 28.0801 56.4415 28.3282 57.4053C29.0144 60.0716 31.4341 62.0418 34.3147 62.0418C37.1952 62.0418 39.6148 60.0718 40.3011 57.4055C40.5493 56.4417 41.2644 55.6733 42.1841 55.2928L42.2185 55.2786C43.1397 54.8954 44.1913 54.9321 45.0504 55.4394C47.4209 56.8387 50.5244 56.5206 52.561 54.4841C54.5975 52.4475 54.9156 49.3441 53.5164 46.9737C53.0092 46.1144 52.9726 45.063 53.3557 44.1417L53.3702 44.107C53.7507 43.1875 54.5192 42.4724 55.4828 42.2242C58.1489 41.5379 60.119 39.1183 60.119 36.2378C60.119 33.3573 58.1489 30.9378 55.4828 30.2514C54.5192 30.0032 53.7507 29.2881 53.3702 28.3686L53.3557 28.3339C52.9726 27.4127 53.0093 26.3612 53.5164 25.502C54.9156 23.1315 54.5975 20.0281 52.561 17.9916C50.5244 15.955 47.4209 15.6369 45.0504 17.0363C44.1913 17.5435 43.1397 17.5802 42.2185 17.1971C42.207 17.1922 42.1956 17.1875 42.1841 17.1828C41.2644 16.8023 40.5493 16.0338 40.3011 15.0701C39.6148 12.404 37.1952 10.4338 34.3147 10.4338C31.4341 10.4338 29.0144 12.4041 28.3282 15.0704C28.0801 16.0342 27.3649 16.8027 26.4454 17.1832L26.4115 17.1973C25.4902 17.5805 24.4385 17.5438 23.5793 17.0365C21.2088 15.6371 18.1051 15.955 16.0685 17.9917C14.0318 20.0284 13.7138 23.1321 15.1134 25.5026C15.6208 26.3619 15.6575 27.4135 15.2744 28.3348L15.2604 28.3684C14.8798 29.288 14.1112 30.0032 13.1474 30.2513C10.481 30.9374 8.51074 33.3572 8.51074 36.2378C8.51074 39.1184 10.481 41.5383 13.1474 42.2244C14.1113 42.4724 14.8799 43.1876 15.2604 44.1073L15.2744 44.1408C15.6575 45.062 15.6208 46.1137 15.1134 46.973C14.0661 48.7467 13.9809 50.9309 14.8573 52.7715" stroke="#A40F79" stroke-width="2" stroke-miterlimit="10" stroke-linecap="round" stroke-linejoin="round"/>
<path d="M41.4771 33.6683C44.0457 33.6683 46.128 31.586 46.128 29.0174C46.128 26.4487 44.0457 24.3665 41.4771 24.3665C38.9085 24.3665 36.8262 26.4487 36.8262 29.0174C36.8262 31.586 38.9085 33.6683 41.4771 33.6683Z" stroke="#A40F79" stroke-width="2" stroke-miterlimit="10" stroke-linecap="round" stroke-linejoin="round"/>
<path d="M8.23098 50.6936C9.01093 48.8107 8.11676 46.652 6.23381 45.872C4.35086 45.0921 2.19216 45.9862 1.41221 47.8692C0.632269 49.7521 1.52644 51.9108 3.40939 52.6908C5.29234 53.4707 7.45104 52.5766 8.23098 50.6936Z" stroke="#A40F79" stroke-width="2" stroke-miterlimit="10" stroke-linecap="round" stroke-linejoin="round"/>
<path d="M25.6117 40.5026C27.9682 40.5026 29.8786 38.5923 29.8786 36.2357C29.8786 33.8791 27.9682 31.9688 25.6117 31.9688C23.2551 31.9688 21.3447 33.8791 21.3447 36.2357C21.3447 38.5923 23.2551 40.5026 25.6117 40.5026Z" stroke="#A40F79" stroke-width="2" stroke-miterlimit="10" stroke-linecap="round" stroke-linejoin="round"/>
<path d="M37.3566 46.6546C37.6291 44.9759 36.4891 43.3942 34.8104 43.1218C33.1317 42.8493 31.55 43.9893 31.2775 45.668C31.0051 47.3467 32.145 48.9284 33.8237 49.2009C35.5024 49.4733 37.0841 48.3333 37.3566 46.6546Z" stroke="#A40F79" stroke-width="2" stroke-miterlimit="10" stroke-linecap="round" stroke-linejoin="round"/>
<path d="M21.3453 47.5766V47.5582M32.8954 18.1593V18.141M35.7874 56.3051V56.2868M49.0335 37.5091V37.4909M35.7874 35.2734V35.2551M16.6748 34.1262V34.108M35.7874 15.3638V15.3455M44.3106 44.5539V44.5356M25.6123 48.6026V48.5843M30.5169 25.9361L30.8178 27.7835M21.1948 23.0208L21.4958 24.8682M45.0017 49.2595L46.3457 50.5919" stroke="#A40F79" stroke-width="2" stroke-miterlimit="10" stroke-linecap="round" stroke-linejoin="round"/>
<path d="M49.0324 12.8309C52.281 12.8309 54.9144 10.1975 54.9144 6.94891C54.9144 3.70036 52.281 1.06689 49.0324 1.06689C45.7839 1.06689 43.1504 3.70036 43.1504 6.94891C43.1504 10.1975 45.7839 12.8309 49.0324 12.8309Z" stroke="#A40F79" stroke-width="2" stroke-miterlimit="10" stroke-linecap="round" stroke-linejoin="round"/>
<path d="M47.4258 5.75481L47.431 5.73486" stroke="#A40F79" stroke-width="2" stroke-miterlimit="10" stroke-linecap="round" stroke-linejoin="round"/>
</svg>
