<svg width="66" height="67" viewBox="0 0 66 67" fill="none" xmlns="http://www.w3.org/2000/svg">
<g clip-path="url(#clip0_114_258)">
<path d="M41.3662 37.4412C41.1098 37.4412 40.8639 37.543 40.6826 37.7243C40.5013 37.9056 40.3994 38.1515 40.3994 38.408C40.3994 38.6644 40.5013 38.9103 40.6826 39.0916C40.8639 39.2729 41.1098 39.3748 41.3662 39.3748C41.6226 39.3748 41.8685 39.2729 42.0498 39.0916C42.2312 38.9103 42.333 38.6644 42.333 38.408C42.333 38.1515 42.2312 37.9056 42.0498 37.7243C41.8685 37.543 41.6226 37.4412 41.3662 37.4412ZM41.3662 43.0862C41.3641 43.2145 41.3876 43.3419 41.4353 43.461C41.4829 43.5801 41.5538 43.6886 41.6438 43.78C41.7338 43.8714 41.8411 43.9441 41.9594 43.9936C42.0777 44.0432 42.2047 44.0687 42.333 44.0687C42.4613 44.0687 42.5883 44.0431 42.7066 43.9935C42.8249 43.9439 42.9322 43.8713 43.0222 43.7798C43.1121 43.6884 43.183 43.5799 43.2306 43.4608C43.2782 43.3416 43.3017 43.2142 43.2995 43.086C43.2954 42.8323 43.1917 42.5905 43.0108 42.4126C42.83 42.2347 42.5864 42.135 42.3328 42.1351C42.0791 42.1351 41.8356 42.2349 41.6548 42.4128C41.474 42.5907 41.3703 42.8326 41.3662 43.0862Z" fill="#A40F79"/>
<path d="M38.3391 42.7248C38.3919 42.1936 38.0041 41.7201 37.4727 41.6672C36.9414 41.6144 36.4678 42.0022 36.415 42.5334C36.3622 43.0647 36.7501 43.5382 37.2814 43.591C37.8127 43.6439 38.2863 43.2561 38.3391 42.7248Z" fill="#A40F79"/>
<path d="M61.7519 16.8589C59.0578 12.0897 55.1808 8.02686 50.5399 5.10919C50.3229 4.97533 50.0618 4.93261 49.8134 4.99034C49.5651 5.04807 49.3496 5.20156 49.2139 5.41742C49.0781 5.63327 49.0332 5.894 49.0888 6.14284C49.1444 6.39168 49.296 6.60848 49.5107 6.74604C53.8809 9.49342 57.5316 13.3192 60.0684 17.8098C62.684 22.4399 64.0664 27.7157 64.0664 33.0668C64.0664 41.3648 60.8349 49.1664 54.9673 55.0342C49.0995 60.9019 41.298 64.1333 32.9999 64.1333C24.7017 64.1333 16.9001 60.9019 11.0324 55.0342C5.16489 49.1665 1.93346 41.3651 1.93346 33.0669C1.93346 24.7687 5.16489 16.9671 11.0326 11.0995C16.9003 5.23178 24.7018 2.00036 33 2.00036C37.3976 2.00036 41.647 2.90025 45.6302 4.67491C45.8641 4.7771 46.1289 4.78269 46.3668 4.69045C46.6048 4.59821 46.7966 4.41562 46.9005 4.18251C47.0044 3.94939 47.0118 3.68466 46.9213 3.44605C46.8308 3.20744 46.6496 3.0143 46.4172 2.90876C42.1846 1.02299 37.6705 0.0668945 33 0.0668945C24.1853 0.0668945 15.8984 3.49954 9.66552 9.73241C3.43264 15.9652 0 24.2522 0 33.0669C0 41.8815 3.43264 50.1685 9.66552 56.4014C15.8984 62.6343 24.1853 66.0669 33 66.0669C41.8146 66.0669 50.1016 62.6343 56.3346 56.4014C62.5674 50.1685 66 41.8815 66 33.0669C66 27.3833 64.531 21.7786 61.7519 16.8589Z" fill="#A40F79"/>
<path d="M26.0362 19.1536C22.8521 19.1536 20.2617 21.7439 20.2617 24.928C20.2617 28.1122 22.8521 30.7025 26.0362 30.7025C29.2203 30.7025 31.8107 28.1122 31.8107 24.928C31.8107 21.7439 29.2203 19.1536 26.0362 19.1536ZM26.0362 28.7692C23.9183 28.7692 22.1951 27.0461 22.1951 24.9282C22.1951 22.8102 23.9181 21.087 26.0362 21.087C28.1543 21.087 29.8773 22.8101 29.8773 24.9282C29.8772 27.0461 28.1541 28.7692 26.0362 28.7692Z" fill="#A40F79"/>
<path d="M53.9779 15.3537C53.8124 15.1578 53.576 15.0356 53.3205 15.0141C53.065 14.9925 52.8114 15.0733 52.6155 15.2388L38.4581 27.1926C37.267 25.551 36.6664 23.75 36.021 21.8106L35.9172 21.4997L38.2256 19.9396C38.4381 19.796 38.5848 19.574 38.6335 19.3223C38.6822 19.0706 38.6289 18.8098 38.4854 18.5974C38.4143 18.4922 38.3232 18.402 38.2173 18.332C38.1114 18.2621 37.9927 18.2136 37.8681 18.1895C37.7435 18.1654 37.6153 18.1661 37.4909 18.1915C37.3665 18.217 37.2484 18.2667 37.1432 18.3378L35.2473 19.6191C34.338 17.6395 32.8412 16.0431 31.0208 14.998L31.9892 12.7565C32.0395 12.64 32.0664 12.5147 32.0684 12.3877C32.0703 12.2608 32.0472 12.1347 32.0004 12.0167C31.9536 11.8987 31.884 11.791 31.7956 11.6999C31.7072 11.6088 31.6017 11.536 31.4851 11.4856C31.3686 11.4352 31.2433 11.4083 31.1163 11.4064C30.9894 11.4044 30.8633 11.4275 30.7453 11.4743C30.6272 11.5211 30.5196 11.5907 30.4285 11.6792C30.3374 11.7676 30.2646 11.8731 30.2142 11.9897L29.261 14.1962C28.1853 13.8233 27.055 13.6327 25.9165 13.6323C24.331 13.6323 22.777 14.0049 21.3763 14.6953L20.3054 12.6916C20.1827 12.4688 19.9772 12.3033 19.7333 12.231C19.4895 12.1587 19.227 12.1854 19.0027 12.3052C18.7784 12.4251 18.6104 12.6286 18.5351 12.8715C18.4597 13.1144 18.4831 13.3772 18.6002 13.6029L19.728 15.713C19.2558 16.069 18.8108 16.4646 18.4033 16.9022C17.0505 18.3542 16.1813 20.2058 15.8256 22.3532L13.532 21.8266C13.2837 21.7736 13.0245 21.8203 12.8104 21.9567C12.5963 22.0931 12.4444 22.3083 12.3876 22.5557C12.3308 22.8032 12.3736 23.0631 12.5068 23.2792C12.64 23.4954 12.8528 23.6504 13.0994 23.711L15.6462 24.2957C15.6365 24.7064 15.6427 25.1252 15.6663 25.5523C15.7896 27.7813 16.2113 30.0149 16.8998 32.1875L14.5926 33.1411C14.3575 33.2403 14.1711 33.4285 14.0742 33.6645C13.9772 33.9006 13.9775 34.1654 14.075 34.4012C14.1725 34.637 14.3592 34.8248 14.5946 34.9234C14.8299 35.0221 15.0947 35.0238 15.3312 34.928L17.5464 34.0124C18.5669 36.611 19.9725 39.091 21.7104 41.3335L12.138 49.4161C12.041 49.498 11.9611 49.5982 11.9028 49.711C11.8445 49.8238 11.809 49.947 11.7983 50.0735C11.7877 50.2 11.802 50.3274 11.8406 50.4484C11.8791 50.5693 11.9411 50.6815 12.0231 50.7785C12.1885 50.9744 12.425 51.0966 12.6805 51.1182C12.807 51.1288 12.9344 51.1145 13.0554 51.0759C13.1763 51.0374 13.2885 50.9754 13.3855 50.8934L22.9445 42.8222C23.218 43.1312 23.498 43.4343 23.7844 43.7314C24.0536 44.0101 24.3282 44.2834 24.608 44.5514C24.6991 44.6418 24.8074 44.7132 24.9264 44.7613C25.0454 44.8095 25.1729 44.8334 25.3012 44.8318C25.4296 44.8301 25.5564 44.8029 25.6741 44.7518C25.7919 44.7006 25.8983 44.6265 25.9871 44.5338C26.0759 44.4411 26.1454 44.3316 26.1914 44.2117C26.2374 44.0919 26.2591 43.9641 26.2553 43.8357C26.2514 43.7074 26.2219 43.5811 26.1687 43.4643C26.1155 43.3474 26.0395 43.2424 25.9453 43.1552C25.6838 42.9048 25.4272 42.6493 25.1757 42.3889C24.9191 42.1225 24.6679 41.851 24.4224 41.5744L38.2507 29.8984C38.2033 29.9383 40.2297 31.5258 40.4103 31.6465C42.7367 33.2002 45.3928 33.773 47.0252 36.2265C49.6189 40.1251 48.4633 45.7195 44.4119 48.1071C39.5897 50.9489 33.576 48.8825 29.3221 45.9217C29.1115 45.7794 28.8533 45.7257 28.6035 45.7723C28.3536 45.819 28.1322 45.9621 27.9871 46.1708C27.842 46.3794 27.7849 46.6369 27.8281 46.8873C27.8714 47.1378 28.0116 47.3611 28.2183 47.509C28.7762 47.8969 29.3486 48.2637 29.9341 48.6086L28.7769 50.5584C28.69 50.7052 28.6433 50.8723 28.6418 51.0429C28.6403 51.2135 28.6839 51.3815 28.7682 51.5298C28.8525 51.678 28.9746 51.8014 29.122 51.8873C29.2694 51.9732 29.4369 52.0185 29.6075 52.0188C29.7754 52.019 29.9405 51.9754 30.0864 51.8924C30.2324 51.8094 30.3542 51.6898 30.4398 51.5453L31.6383 49.526C33.2764 50.3255 34.9149 50.8902 36.491 51.1881C37.2944 51.34 38.0814 51.4254 38.8507 51.4453L38.8387 53.7544C38.8374 54.0108 38.9379 54.2572 39.1183 54.4395C39.2986 54.6217 39.544 54.7249 39.8004 54.7262H39.8055C40.061 54.7262 40.3061 54.625 40.4872 54.4448C40.6683 54.2646 40.7707 54.0201 40.7721 53.7646L40.7846 51.3508C42.4165 51.1453 43.9573 50.6191 45.3932 49.7729C45.9636 49.4365 46.4998 49.0453 46.9942 48.6048L48.8208 50.3376C49.0003 50.5082 49.2385 50.6032 49.4861 50.6029C49.6795 50.6029 49.8685 50.5449 50.0286 50.4365C50.1887 50.328 50.3126 50.174 50.3842 49.9944C50.4559 49.8147 50.472 49.6177 50.4306 49.4288C50.3891 49.2399 50.292 49.0678 50.1517 48.9347L48.311 47.1887C49.6743 45.4157 50.453 43.2154 50.453 40.9228C50.453 40.5188 50.4291 40.1188 50.3827 39.7244L53.0447 38.657C53.2791 38.5591 53.4655 38.3729 53.5636 38.1386C53.6618 37.9044 53.6638 37.6409 53.5693 37.4052C53.4748 37.1694 53.2913 36.9803 53.0585 36.8788C52.8257 36.7773 52.5622 36.7714 52.3252 36.8625L49.9675 37.8078C49.2194 35.4663 47.6464 33.4511 45.5322 32.1595L46.6395 30.1809C46.7015 30.0701 46.741 29.9482 46.7559 29.8221C46.7708 29.6961 46.7607 29.5683 46.7261 29.4461C46.6916 29.324 46.6334 29.2098 46.5548 29.1101C46.4761 29.0105 46.3786 28.9273 46.2678 28.8653C46.1571 28.8033 46.0352 28.7638 45.9091 28.7489C45.783 28.734 45.6552 28.7441 45.5331 28.7786C45.4109 28.8132 45.2967 28.8714 45.1971 28.95C45.0974 29.0287 45.0142 29.1262 44.9522 29.2369L43.7913 31.3116C43.7434 31.2935 43.696 31.2743 43.6477 31.2569C41.9612 30.4515 40.7026 29.5805 39.7297 28.6493L53.8624 16.7163C53.9594 16.6344 54.0394 16.5342 54.0978 16.4214C54.1561 16.3086 54.1917 16.1855 54.2024 16.0589C54.2131 15.9324 54.1988 15.805 54.1603 15.684C54.1218 15.563 54.0598 15.4508 53.9779 15.3537ZM23.1889 40.0856C19.888 35.8029 17.8828 30.6076 17.597 25.4453C17.4817 23.3606 17.7732 20.415 19.8181 18.2201C21.3638 16.5609 23.62 15.5659 25.9166 15.5659C29.1848 15.566 32.1665 17.4929 33.5131 20.4749C33.5177 20.4854 33.5228 20.4958 33.5274 20.5064C33.7978 21.1122 33.9772 21.792 34.1866 22.4213C34.8613 24.4488 35.5494 26.5133 36.9814 28.4397L23.1889 40.0856Z" fill="#A40F79"/>
</g>
<defs>
<clipPath id="clip0_114_258">
<rect width="66" height="66" fill="white" transform="translate(0 0.0668945)"/>
</clipPath>
</defs>
</svg>
