<svg width="66" height="67" viewBox="0 0 66 67" fill="none" xmlns="http://www.w3.org/2000/svg">
<path d="M33 1.19385C15.3718 1.19385 1.03125 15.5354 1.03125 33.1626C1.03125 50.7093 15.2893 65.1313 33 65.1313C50.6282 65.1313 64.9688 50.7898 64.9688 33.1626C64.9688 15.5004 50.5931 1.19385 33 1.19385ZM33 3.25635C40.8746 3.25635 48.0439 6.32122 53.3899 11.3135L22.4885 42.2159C21.4964 41.8292 20.5353 41.5755 19.5938 41.4734V40.6825C19.5938 40.1132 19.1328 39.6512 18.5625 39.6512C17.9922 39.6512 17.5312 40.1132 17.5312 40.6825V41.5291C15.9019 41.8767 14.7799 43.0502 14.5076 44.725H13.9642C13.3939 44.725 12.9329 45.187 12.9329 45.7562C12.9329 46.3255 13.3939 46.7875 13.9642 46.7875H14.5654C14.7201 47.6083 15.0325 48.4292 15.476 49.2284L11.1509 53.5535C6.15862 48.2065 3.09375 41.0372 3.09375 33.1626C3.09375 16.6719 16.5103 3.25635 33 3.25635ZM17.0094 47.696C15.6575 44.6703 16.7547 42.6295 20.8684 43.8371L17.0094 47.696ZM33 63.0688C25.1254 63.0688 17.9561 60.004 12.6101 55.0117L54.8491 12.7717C59.8414 18.1187 62.9062 25.288 62.9062 33.1626C62.9062 49.6533 49.4897 63.0688 33 63.0688Z" fill="#A40F79"/>
<path d="M10.6147 29.7461L11.4851 29.5604C11.7748 31.5693 12.6793 33.6958 15.4688 34.1144V35.2251C15.4688 36.5894 17.5313 36.5905 17.5313 35.2251V34.0959C18.9688 33.8381 20.1012 33.0584 21.0406 32.0561L21.8481 32.7449C22.869 33.6194 24.2313 32.0653 23.1856 31.1764L22.3173 30.436C22.77 29.7677 23.1774 29.0778 23.561 28.4281C24.0849 27.5392 24.5861 26.7008 25.0976 26.0748L25.9752 26.907C26.9569 27.8393 28.3852 26.3522 27.3952 25.4117L26.7084 24.76C27.4509 24.3279 28.346 23.9123 29.2752 23.4833C30.0971 23.1038 30.9468 22.7099 31.7574 22.2736L32.4225 23.1966C33.2238 24.3031 34.8924 23.0966 34.0963 21.99L33.5115 21.1795C35.011 20.0729 36.0938 18.6663 36.0938 16.6626C36.0938 16.379 36.069 16.1068 36.0257 15.8448L37.0642 15.5499C38.377 15.1776 37.8139 13.1935 36.5001 13.5658L35.2502 13.9205C34.3489 12.5881 32.8412 11.6775 31.3026 11.1279L31.8677 9.52944C32.0575 8.99216 31.7749 8.40332 31.2387 8.21357C30.7014 8.02176 30.1125 8.30535 29.9228 8.84263L29.2989 10.6081C28.776 10.5225 28.279 10.4751 27.8438 10.4751C26.4599 10.4751 25.1832 10.6514 23.9972 10.9567L23.4919 9.49335C23.0423 8.2012 21.0973 8.88079 21.5418 10.1668L22.0409 11.6105C20.3383 12.3231 18.8698 13.3244 17.6128 14.4867L16.7063 13.6029C15.7287 12.65 14.2901 14.1288 15.2667 15.0807L16.1824 15.9737C14.9408 17.4247 13.9663 19.0097 13.2268 20.536L11.7161 19.9544C10.4404 19.4655 9.70307 21.3888 10.9746 21.8787L12.4091 22.4314C11.6748 24.3702 11.3438 26.047 11.3438 26.9751C11.3438 27.1329 11.3438 27.303 11.3458 27.4804L10.1836 27.7279C8.85126 28.0125 9.28026 30.0328 10.6147 29.7461ZM34.0313 16.6626C34.0313 19.0149 31.1737 20.3339 28.4099 21.6095C24.0838 23.6081 23.6476 24.2165 21.7831 27.3794C20.4064 29.7162 18.9833 32.1313 16.5 32.1313C14.4045 32.1313 13.4063 31.36 13.4063 26.9751C13.4063 24.4269 17.1673 12.5376 27.8438 12.5376C29.665 12.5376 34.0313 13.7246 34.0313 16.6626Z" fill="#A40F79"/>
<path d="M42.7969 15.6313C44.7872 15.6313 46.4062 14.0123 46.4062 12.022C46.4062 10.0317 44.7872 8.4126 42.7969 8.4126C40.8066 8.4126 39.1875 10.0317 39.1875 12.022C39.1875 14.0123 40.8066 15.6313 42.7969 15.6313ZM42.7969 10.4751C43.6497 10.4751 44.3438 11.1691 44.3438 12.022C44.3438 12.8748 43.6497 13.5688 42.7969 13.5688C41.944 13.5688 41.25 12.8748 41.25 12.022C41.25 11.1691 41.944 10.4751 42.7969 10.4751Z" fill="#A40F79"/>
<path d="M45.8906 49.6626C43.9003 49.6626 42.2812 51.2817 42.2812 53.272C42.2812 55.2623 43.9003 56.8813 45.8906 56.8813C47.8809 56.8813 49.5 55.2623 49.5 53.272C49.5 51.2817 47.8809 49.6626 45.8906 49.6626ZM45.8906 54.8188C45.0378 54.8188 44.3438 54.1248 44.3438 53.272C44.3438 52.4191 45.0378 51.7251 45.8906 51.7251C46.7435 51.7251 47.4375 52.4191 47.4375 53.272C47.4375 54.1248 46.7435 54.8188 45.8906 54.8188Z" fill="#A40F79"/>
<path d="M54.6562 23.8813C55.7953 23.8813 56.7188 22.9579 56.7188 21.8188C56.7188 20.6798 55.7953 19.7563 54.6562 19.7563C53.5172 19.7563 52.5938 20.6798 52.5938 21.8188C52.5938 22.9579 53.5172 23.8813 54.6562 23.8813Z" fill="#A40F79"/>
<path d="M30.4219 18.7251C31.2762 18.7251 31.9688 18.0325 31.9688 17.1782C31.9688 16.3239 31.2762 15.6313 30.4219 15.6313C29.5676 15.6313 28.875 16.3239 28.875 17.1782C28.875 18.0325 29.5676 18.7251 30.4219 18.7251Z" fill="#A40F79"/>
<path d="M51.0469 41.4126C51.9012 41.4126 52.5938 40.72 52.5938 39.8657C52.5938 39.0114 51.9012 38.3188 51.0469 38.3188C50.1926 38.3188 49.5 39.0114 49.5 39.8657C49.5 40.72 50.1926 41.4126 51.0469 41.4126Z" fill="#A40F79"/>
<path d="M20.1094 20.7876C20.9637 20.7876 21.6562 20.095 21.6562 19.2407C21.6562 18.3864 20.9637 17.6938 20.1094 17.6938C19.2551 17.6938 18.5625 18.3864 18.5625 19.2407C18.5625 20.095 19.2551 20.7876 20.1094 20.7876Z" fill="#A40F79"/>
<path d="M15.9844 29.0376C16.8387 29.0376 17.5312 28.345 17.5312 27.4907C17.5312 26.6364 16.8387 25.9438 15.9844 25.9438C15.1301 25.9438 14.4375 26.6364 14.4375 27.4907C14.4375 28.345 15.1301 29.0376 15.9844 29.0376Z" fill="#A40F79"/>
<path d="M20.625 25.9438C21.1945 25.9438 21.6562 25.4821 21.6562 24.9126C21.6562 24.3431 21.1945 23.8813 20.625 23.8813C20.0555 23.8813 19.5938 24.3431 19.5938 24.9126C19.5938 25.4821 20.0555 25.9438 20.625 25.9438Z" fill="#A40F79"/>
<path d="M24.75 17.6938C25.3195 17.6938 25.7812 17.2321 25.7812 16.6626C25.7812 16.0931 25.3195 15.6313 24.75 15.6313C24.1805 15.6313 23.7188 16.0931 23.7188 16.6626C23.7188 17.2321 24.1805 17.6938 24.75 17.6938Z" fill="#A40F79"/>
<path d="M51.5625 35.2251C52.132 35.2251 52.5938 34.7634 52.5938 34.1938C52.5938 33.6243 52.132 33.1626 51.5625 33.1626C50.993 33.1626 50.5312 33.6243 50.5312 34.1938C50.5312 34.7634 50.993 35.2251 51.5625 35.2251Z" fill="#A40F79"/>
<path d="M29.9062 52.7563C30.4758 52.7563 30.9375 52.2946 30.9375 51.7251C30.9375 51.1556 30.4758 50.6938 29.9062 50.6938C29.3367 50.6938 28.875 51.1556 28.875 51.7251C28.875 52.2946 29.3367 52.7563 29.9062 52.7563Z" fill="#A40F79"/>
<path d="M23.7188 50.9517C24.4307 50.9517 25.0078 50.3745 25.0078 49.6626C25.0078 48.9507 24.4307 48.3735 23.7188 48.3735C23.0068 48.3735 22.4297 48.9507 22.4297 49.6626C22.4297 50.3745 23.0068 50.9517 23.7188 50.9517Z" fill="#A40F79"/>
<path d="M45.7626 36.1707C45.1459 36.5265 44.9345 37.3154 45.2892 37.9321C45.646 38.5477 46.4349 38.7602 47.0516 38.4034C47.6673 38.0476 47.8787 37.2577 47.5229 36.643C47.1671 36.0274 46.3782 35.816 45.7626 36.1707Z" fill="#A40F79"/>
<path d="M9.28125 41.4126C10.4203 41.4126 11.3438 40.4892 11.3438 39.3501C11.3438 38.211 10.4203 37.2876 9.28125 37.2876C8.14216 37.2876 7.21875 38.211 7.21875 39.3501C7.21875 40.4892 8.14216 41.4126 9.28125 41.4126Z" fill="#A40F79"/>
<path d="M59.8135 36.2563H57.6788C57.4901 34.7538 56.8961 33.3781 56.0092 32.2376L57.522 30.7258C57.9253 30.3225 57.9253 29.6698 57.522 29.2665C57.1188 28.8633 56.4671 28.8643 56.0639 29.2665L54.55 30.7794C53.4094 29.8925 52.0337 29.2985 50.5312 29.1098V26.9751C50.5312 26.4058 50.0702 25.9438 49.4999 25.9438C48.9297 25.9438 48.4687 26.4058 48.4687 26.9751V29.1088C46.9651 29.2975 45.5894 29.8915 44.4489 30.7783L42.9371 29.2665C42.5339 28.8633 41.8821 28.8633 41.4789 29.2665C41.0757 29.6698 41.0757 30.3215 41.4789 30.7247L42.9907 32.2365C42.1038 33.3771 41.5098 34.7528 41.3211 36.2563H39.1885C38.6182 36.2563 38.1572 36.7183 38.1572 37.2876C38.1572 37.8568 38.6182 38.3188 39.1885 38.3188H41.3221C41.5109 39.8224 42.1049 41.1981 42.9917 42.3387L41.4809 43.8505C40.5033 44.8281 41.9883 46.2595 42.9391 45.3087L44.4499 43.7968C45.5905 44.6837 46.9662 45.2777 48.4687 45.4664V47.6001C48.4687 48.9644 50.5312 48.9655 50.5312 47.6001V45.4664C52.0348 45.2777 53.4104 44.6837 54.551 43.7968L56.0628 45.3097C57.0198 46.2667 58.4873 44.8178 57.521 43.8515L56.0092 42.3387C56.8961 41.1981 57.4901 39.8224 57.6788 38.3188H59.8135C61.1758 38.3188 61.1789 36.2563 59.8135 36.2563ZM49.4999 43.4751C46.0875 43.4751 43.3124 40.7 43.3124 37.2876C43.3124 33.8752 46.0875 31.1001 49.4999 31.1001C52.9124 31.1001 55.6874 33.8752 55.6874 37.2876C55.6874 40.7 52.9124 43.4751 49.4999 43.4751Z" fill="#A40F79"/>
<path d="M38.5801 49.8926L37.6726 50.0504C37.156 49.245 36.2711 48.6634 35.2327 48.2034L35.4224 47.7157C35.9133 46.4452 33.9952 45.6944 33.4991 46.969L33.296 47.4939C32.9062 47.3712 32.5153 47.2537 32.1307 47.1392C31.2129 46.8669 30.2899 46.5833 29.5072 46.2585L29.7505 45.8697C30.4755 44.7106 28.7234 43.6216 28.0026 44.7745L27.72 45.2262C27.6355 45.1674 27.5643 45.12 27.4777 45.0581C27.2023 44.8643 26.9115 44.6601 26.6052 44.4497C26.135 44.1269 25.4925 44.2476 25.1708 44.7158C24.848 45.185 24.9676 45.8274 25.4368 46.1492C27.6767 47.6858 27.7705 47.9931 31.5439 49.1151C33.7796 49.7823 36.0938 50.4701 36.0938 51.7252C36.0938 53.6041 33.6652 54.8189 29.9063 54.8189C26.4629 54.8189 22.6329 53.4525 19.9124 51.2528C19.468 50.895 18.8193 50.9641 18.4625 51.4065C18.1036 51.8489 18.1737 52.4986 18.6151 52.8564C19.0874 53.238 19.5917 53.5876 20.1094 53.9207L19.9722 54.2569C19.4566 55.5202 21.3665 56.2988 21.8821 55.0355L21.9213 54.9385C23.2537 55.5965 24.6675 56.0977 26.1092 56.4256V57.3104C26.1092 58.6748 28.1717 58.6758 28.1717 57.3104V56.7783C28.7523 56.8402 29.3319 56.8814 29.9063 56.8814C30.952 56.8814 31.8739 56.7948 32.6968 56.6463L32.965 57.2279C33.5363 58.4644 35.4121 57.6074 34.8377 56.3637L34.7078 56.0832C37.0044 55.1572 38.0057 53.5639 38.1356 52.0644L38.9338 51.9252C40.2693 51.6911 39.9372 49.6668 38.5801 49.8926Z" fill="#A40F79"/>
</svg>
