<svg width="66" height="67" viewBox="0 0 66 67" fill="none" xmlns="http://www.w3.org/2000/svg">
<g clip-path="url(#clip0_114_271)">
<path d="M24.75 14.6859C24.75 11.6296 23.5549 8.69849 21.4275 6.53736C19.3001 4.37622 16.4148 3.16211 13.4062 3.16211C10.3977 3.16211 7.51237 4.37622 5.38501 6.53736C3.25764 8.69849 2.0625 11.6296 2.0625 14.6859V34.5907C2.0625 34.8685 2.17115 35.135 2.36455 35.3315C2.55794 35.5279 2.82025 35.6383 3.09375 35.6383V55.5431C3.09375 58.3215 4.18024 60.9862 6.11421 62.9509C8.04818 64.9155 10.6712 66.0193 13.4062 66.0193C16.1413 66.0193 18.7643 64.9155 20.6983 62.9509C22.6323 60.9862 23.7188 58.3215 23.7188 55.5431V35.6383C23.9923 35.6383 24.2546 35.5279 24.448 35.3315C24.6414 35.135 24.75 34.8685 24.75 34.5907V14.6859ZM4.125 14.6859C4.125 12.1853 5.10284 9.78711 6.84341 8.01891C8.58399 6.25071 10.9447 5.25735 13.4062 5.25735C15.8678 5.25735 18.2285 6.25071 19.9691 8.01891C21.7097 9.78711 22.6875 12.1853 22.6875 14.6859V33.5431H4.125V14.6859ZM21.6562 55.5431C21.6562 57.7658 20.7871 59.8976 19.2399 61.4693C17.6927 63.041 15.5943 63.924 13.4062 63.924C11.2182 63.924 9.11979 63.041 7.57262 61.4693C6.02544 59.8976 5.15625 57.7658 5.15625 55.5431V35.6383H21.6562V55.5431ZM37.125 7.35259C33.4339 7.34482 29.7814 8.11675 26.3996 9.61937L27.2254 11.5395C30.3469 10.1528 33.7181 9.44045 37.125 9.44782C50.7723 9.44782 61.875 20.7268 61.875 34.5907C61.875 48.4546 50.7723 59.7335 37.125 59.7335C33.3497 59.7444 29.623 58.869 26.2355 57.1758L25.327 59.0566C28.997 60.8915 33.0346 61.8403 37.125 61.8288C51.9094 61.8288 63.9375 49.6097 63.9375 34.5907C63.9375 19.5716 51.9094 7.35259 37.125 7.35259Z" fill="#A40F79"/>
<path d="M59.8119 34.5906C59.8119 21.8821 49.6344 11.543 37.1244 11.543C33.3519 11.5429 29.6388 12.4971 26.3201 14.3194L27.3037 16.1611C30.3203 14.505 33.6954 13.6379 37.1244 13.6382C48.497 13.6382 57.7494 23.0374 57.7494 34.5906C57.7494 46.1437 48.497 55.543 37.1244 55.543C33.3102 55.5466 29.5701 54.4732 26.3215 52.4427L25.2397 54.2265C28.8135 56.4607 32.9282 57.6419 37.1244 57.6382C49.6344 57.6382 59.8119 47.2991 59.8119 34.5906Z" fill="#A40F79"/>
<path d="M26.8125 23.0668V25.1621H28.9627C29.1179 26.0962 29.4802 26.9823 30.0221 27.7534L28.4998 29.2999L29.9581 30.7815L31.4805 29.2349C32.2395 29.7854 33.1117 30.1534 34.0313 30.3111V32.4954H36.0938V30.3111C37.0133 30.1534 37.8856 29.7853 38.6445 29.2348L40.1669 30.7814L41.6254 29.2999L40.103 27.7534C40.6449 26.9823 41.0071 26.0962 41.1623 25.1621H43.3125V23.0668H41.1623C41.0071 22.1327 40.6448 21.2466 40.1029 20.4755L41.6252 18.929L40.1669 17.4474L38.6445 18.9939C37.8855 18.4435 37.0133 18.0755 36.0938 17.9178V15.7335H34.0313V17.9178C33.1117 18.0755 32.2394 18.4436 31.4805 18.9941L29.9581 17.4475L28.4996 18.929L30.022 20.4755C29.4801 21.2466 29.1179 22.1327 28.9627 23.0668H26.8125ZM31.5104 21.9875L32.1457 22.6329L33.6041 21.1514L32.9688 20.5059C33.3004 20.3062 33.6581 20.1549 34.0313 20.0566V20.9716H36.0938V20.0566C36.4669 20.1549 36.8246 20.3062 37.1562 20.5059L36.5209 21.1514L37.9793 22.6329L38.6146 21.9875C38.8113 22.3244 38.9602 22.6877 39.0569 23.0668H38.1563V25.1621H39.0569C38.9602 25.5412 38.8113 25.9045 38.6146 26.2414L37.9793 25.596L36.5209 27.0775L37.1562 27.723C36.8246 27.9227 36.4669 28.074 36.0938 28.1723V27.2573H34.0313V28.1723C33.6581 28.074 33.3004 27.9227 32.9688 27.723L33.6041 27.0775L32.1457 25.596L31.5104 26.2414C31.3137 25.9045 31.1648 25.5412 31.0681 25.1621H31.9688V23.0668H31.0681C31.1648 22.6877 31.3137 22.3244 31.5104 21.9875ZM47.4375 27.2573V29.4416C46.5179 29.5993 45.6457 29.9674 44.8867 30.5179L43.3643 28.9713L41.9059 30.4528L43.4283 31.9994C42.8864 32.7704 42.5242 33.6565 42.3689 34.5906H40.2188V36.6859H42.3689C42.5242 37.62 42.8865 38.5061 43.4284 39.2772L41.906 40.8237L43.3643 42.3053L44.8867 40.7588C45.6457 41.3092 46.5179 41.6772 47.4375 41.8349V44.0192H49.5V41.8349C50.4196 41.6772 51.2918 41.3091 52.0508 40.7586L53.5732 42.3052L55.0316 40.8237L53.5092 39.2772C54.0511 38.5061 54.4133 37.62 54.5686 36.6859H56.7188V34.5906H54.5686C54.4133 33.6565 54.051 32.7704 53.5091 31.9994L55.0315 30.4528L53.5732 28.9712L52.0508 30.5178C51.2918 29.9673 50.4196 29.5993 49.5 29.4416V27.2573H47.4375ZM50.5624 32.0297L49.9272 32.6752L51.3855 34.1567L52.0209 33.5113C52.2175 33.8482 52.3664 34.2115 52.4632 34.5906H51.5625V36.6859H52.4632C52.3664 37.065 52.2175 37.4283 52.0209 37.7652L51.3855 37.1199L49.9272 38.6013L50.5624 39.2468C50.2309 39.4465 49.8732 39.5978 49.5 39.6961V38.7811H47.4375V39.6961C47.0643 39.5978 46.7066 39.4465 46.3751 39.2468L47.0103 38.6013L45.552 37.1199L44.9166 37.7652C44.72 37.4283 44.5711 37.065 44.4743 36.6859H45.375V34.5906H44.4743C44.5711 34.2115 44.72 33.8482 44.9166 33.5113L45.552 34.1567L47.0103 32.6752L46.3751 32.0297C46.7066 31.83 47.0643 31.6787 47.4375 31.5804V32.4954H49.5V31.5804C49.8732 31.6787 50.2309 31.83 50.5624 32.0297ZM27.9596 46.6105L26.4373 48.157L27.8956 49.6386L29.418 48.0921C30.177 48.6426 31.0492 49.0105 31.9688 49.1683V51.3525H34.0313V49.1683C34.9508 49.0105 35.8231 48.6425 36.582 48.092L38.1044 49.6385L39.5629 48.157L38.0405 46.6105C38.5824 45.8395 38.9446 44.9534 39.0998 44.0192H41.25V41.924H39.0998C38.9446 40.9898 38.5823 40.1037 38.0404 39.3327L39.5627 37.7861L38.1044 36.3045L36.582 37.8511C35.823 37.3006 34.9508 36.9326 34.0313 36.7749V34.5906H31.9688V36.7749C31.0492 36.9327 30.1769 37.3007 29.418 37.8512L27.8956 36.3047L26.4371 37.7861L27.9595 39.3327C27.4176 40.1037 27.0554 40.9898 26.9002 41.924H24.75V44.0192H26.9002C27.0554 44.9534 27.4177 45.8395 27.9596 46.6105ZM29.4479 40.8447L30.0832 41.49L31.5416 40.0085L30.9063 39.3631C31.2379 39.1633 31.5956 39.012 31.9688 38.9138V39.8287H34.0313V38.9138C34.4044 39.012 34.7621 39.1633 35.0937 39.3631L34.4584 40.0085L35.9168 41.49L36.5521 40.8447C36.7488 41.1815 36.8977 41.5449 36.9944 41.924H36.0938V44.0192H36.9944C36.8977 44.3983 36.7488 44.7617 36.5521 45.0985L35.9168 44.4532L34.4584 45.9347L35.0937 46.5801C34.7621 46.7799 34.4044 46.9311 34.0313 47.0294V46.1144H31.9688V47.0294C31.5956 46.9311 31.2379 46.7799 30.9063 46.5801L31.5416 45.9347L30.0832 44.4532L29.4479 45.0985C29.2512 44.7617 29.1023 44.3983 29.0056 44.0192H29.9063V41.924H29.0056C29.1023 41.5449 29.2512 41.1815 29.4479 40.8447ZM6.1875 14.6859V23.0668H8.25V14.6859C8.24909 13.3974 8.71659 12.1539 9.56278 11.194L8.02596 9.79677C6.84106 11.1407 6.18636 12.8817 6.1875 14.6859ZM11.6874 9.74557C12.2395 9.54765 12.8208 9.44694 13.4063 9.44778V7.35254C12.5866 7.3516 11.7729 7.49283 11.0001 7.77015L11.6874 9.74557Z" fill="#A40F79"/>
</g>
<defs>
<clipPath id="clip0_114_271">
<rect width="66" height="66" fill="white" transform="translate(0 0.0668945)"/>
</clipPath>
</defs>
</svg>
