<svg width="66" height="67" viewBox="0 0 66 67" fill="none" xmlns="http://www.w3.org/2000/svg">
<path d="M12.8669 43.4751C9.69375 35.9305 8.25 26.7111 8.25 15.6313C21.6562 15.6313 29.9062 6.3501 33 2.2251C36.0938 6.3501 44.3438 15.6313 57.75 15.6313C57.75 26.2109 56.431 35.0952 53.5508 42.4438" stroke="#A40F79" stroke-width="2" stroke-linecap="round" stroke-linejoin="round"/>
<path d="M43.8859 56.8813C40.6524 59.8361 36.9801 62.2713 33 64.1001C30.0764 62.743 27.31 61.0703 24.75 59.1119" stroke="#A40F79" stroke-width="2" stroke-linecap="round" stroke-linejoin="round"/>
<path d="M19.2402 50.0163C18.0864 48.8626 16.6164 48.0769 15.0161 47.7586C13.4157 47.4403 11.757 47.6037 10.2495 48.2281C8.74204 48.8526 7.45359 49.91 6.54708 51.2667C5.64058 52.6234 5.15674 54.2184 5.15674 55.8501C5.15674 57.4818 5.64058 59.0768 6.54708 60.4335C7.45359 61.7902 8.74204 62.8476 10.2495 63.4721C11.757 64.0965 13.4157 64.2599 15.0161 63.9416C16.6164 63.6233 18.0864 62.8376 19.2402 61.6839C20.0063 60.9178 20.6141 60.0083 21.0287 59.0073C21.4433 58.0064 21.6567 56.9335 21.6567 55.8501C21.6567 54.7667 21.4433 53.6938 21.0287 52.6929C20.6141 51.6919 20.0063 50.7824 19.2402 50.0163Z" stroke="#A40F79" stroke-width="2" stroke-linecap="round" stroke-linejoin="round"/>
<path d="M7.57227 50.0164L19.2398 61.6839" stroke="#A40F79" stroke-width="2" stroke-linecap="round" stroke-linejoin="round"/>
<path d="M55.1308 62.5945C56.099 63.5627 57.4122 64.1067 58.7814 64.1067C60.1507 64.1067 61.4638 63.5627 62.432 62.5945C63.4002 61.6263 63.9442 60.3131 63.9442 58.9439C63.9442 57.5746 63.4002 56.2615 62.432 55.2933L54.182 47.0433C53.2138 46.0751 51.9007 45.5311 50.5314 45.5311C49.1622 45.5311 47.849 46.0751 46.8808 47.0433C45.9126 48.0115 45.3687 49.3246 45.3687 50.6939C45.3687 52.0631 45.9126 53.3763 46.8808 54.3445L55.1308 62.5945Z" stroke="#A40F79" stroke-width="2" stroke-linecap="round" stroke-linejoin="round"/>
<path d="M58.3071 51.1682L51.0059 58.4695" stroke="#A40F79" stroke-width="2" stroke-linecap="round" stroke-linejoin="round"/>
<path d="M41.25 28.0063C43.3125 28.0063 46.4062 30.0688 46.4062 33.1626C46.4062 38.3188 42.2812 47.6001 34.0312 47.6001C30.9375 47.6001 28.875 45.5376 28.875 43.4751C28.875 40.3813 33 39.3501 35.0625 36.2563C37.125 33.1626 36.0938 28.0063 41.25 28.0063Z" stroke="#A40F79" stroke-width="2" stroke-linecap="round" stroke-linejoin="round"/>
<path d="M41.25 34.1938C41.8195 34.1938 42.2812 33.7321 42.2812 33.1626C42.2812 32.5931 41.8195 32.1313 41.25 32.1313C40.6805 32.1313 40.2188 32.5931 40.2188 33.1626C40.2188 33.7321 40.6805 34.1938 41.25 34.1938Z" fill="#A40F79"/>
<path d="M26.8125 24.9126C27.382 24.9126 27.8438 24.4509 27.8438 23.8813C27.8438 23.3118 27.382 22.8501 26.8125 22.8501C26.243 22.8501 25.7812 23.3118 25.7812 23.8813C25.7812 24.4509 26.243 24.9126 26.8125 24.9126Z" fill="#A40F79"/>
<path d="M34.0312 44.5063C34.6008 44.5063 35.0625 44.0446 35.0625 43.4751C35.0625 42.9056 34.6008 42.4438 34.0312 42.4438C33.4617 42.4438 33 42.9056 33 43.4751C33 44.0446 33.4617 44.5063 34.0312 44.5063Z" fill="#A40F79"/>
<path d="M39.7031 40.3813C40.5574 40.3813 41.25 39.6888 41.25 38.8345C41.25 37.9802 40.5574 37.2876 39.7031 37.2876C38.8488 37.2876 38.1562 37.9802 38.1562 38.8345C38.1562 39.6888 38.8488 40.3813 39.7031 40.3813Z" fill="#A40F79"/>
<path d="M23.2031 30.0688C24.0574 30.0688 24.75 29.3763 24.75 28.522C24.75 27.6677 24.0574 26.9751 23.2031 26.9751C22.3488 26.9751 21.6562 27.6677 21.6562 28.522C21.6562 29.3763 22.3488 30.0688 23.2031 30.0688Z" fill="#A40F79"/>
<path d="M26.8125 19.7563C22.6875 19.7563 18.5625 22.8501 18.5625 26.9751C18.5625 31.1001 19.5938 34.1938 22.6875 34.1938C27.8438 34.1938 25.7812 30.0688 27.8438 29.0376C28.7909 28.5545 29.5831 27.8149 30.1302 26.9032C30.6772 25.9915 30.9569 24.9444 30.9375 23.8813C30.8651 22.8112 30.4073 21.8035 29.6488 21.045C28.8904 20.2866 27.8827 19.8287 26.8125 19.7563Z" stroke="#A40F79" stroke-width="2" stroke-linecap="round" stroke-linejoin="round"/>
<path d="M26.8125 19.7563V17.6938" stroke="#A40F79" stroke-width="2" stroke-linecap="round" stroke-linejoin="round"/>
<path d="M31.9686 20.7876L30.1846 21.6848" stroke="#A40F79" stroke-width="2" stroke-linecap="round" stroke-linejoin="round"/>
<path d="M30.9374 30.0688L29.0708 28.2023" stroke="#A40F79" stroke-width="2" stroke-linecap="round" stroke-linejoin="round"/>
<path d="M23.7188 34.1938V36.2563" stroke="#A40F79" stroke-width="2" stroke-linecap="round" stroke-linejoin="round"/>
<path d="M19.14 31.327L17.5312 32.1314" stroke="#A40F79" stroke-width="2" stroke-linecap="round" stroke-linejoin="round"/>
<path d="M19.0369 24.6342L17.5312 23.8813" stroke="#A40F79" stroke-width="2" stroke-linecap="round" stroke-linejoin="round"/>
<path d="M41.25 28.0063V24.9126" stroke="#A40F79" stroke-width="2" stroke-linecap="round" stroke-linejoin="round"/>
<path d="M46.4062 32.1313L48.4688 31.1001" stroke="#A40F79" stroke-width="2" stroke-linecap="round" stroke-linejoin="round"/>
<path d="M46.4062 41.4125L44.4468 40.4329" stroke="#A40F79" stroke-width="2" stroke-linecap="round" stroke-linejoin="round"/>
<path d="M38.1563 49.6627L37.29 47.0742" stroke="#A40F79" stroke-width="2" stroke-linecap="round" stroke-linejoin="round"/>
<path d="M30.8137 46.6926L28.875 48.6314" stroke="#A40F79" stroke-width="2" stroke-linecap="round" stroke-linejoin="round"/>
<path d="M29.2359 42.0004L26.8125 40.3813" stroke="#A40F79" stroke-width="2" stroke-linecap="round" stroke-linejoin="round"/>
<path d="M35.0625 36.2563L33 34.1938" stroke="#A40F79" stroke-width="2" stroke-linecap="round" stroke-linejoin="round"/>
<path d="M47.4375 4.2876L46.4062 6.3501" stroke="#A40F79" stroke-width="2" stroke-linecap="round" stroke-linejoin="round"/>
<path d="M18.5625 4.2876L19.5938 6.3501" stroke="#A40F79" stroke-width="2" stroke-linecap="round" stroke-linejoin="round"/>
<path d="M59.8125 11.5063L61.875 9.44385" stroke="#A40F79" stroke-width="2" stroke-linecap="round" stroke-linejoin="round"/>
<path d="M6.1875 11.5063L4.125 9.44385" stroke="#A40F79" stroke-width="2" stroke-linecap="round" stroke-linejoin="round"/>
<path d="M61.875 29.0376H63.9375" stroke="#A40F79" stroke-width="2" stroke-linecap="round" stroke-linejoin="round"/>
<path d="M4.125 29.0376H2.0625" stroke="#A40F79" stroke-width="2" stroke-linecap="round" stroke-linejoin="round"/>
<path d="M59.8125 41.4126L62.9062 42.4438" stroke="#A40F79" stroke-width="2" stroke-linecap="round" stroke-linejoin="round"/>
<path d="M6.1875 41.4126L3.09375 42.4438" stroke="#A40F79" stroke-width="2" stroke-linecap="round" stroke-linejoin="round"/>
</svg>
