<svg width="65" height="65" viewBox="0 0 65 65" fill="none" xmlns="http://www.w3.org/2000/svg">
<path d="M44.2232 38.4745L42.7464 39.9535C43.9176 41.0814 44.8605 42.4246 45.5234 43.9094C45.9414 44.9546 45.9101 45.6569 45.7021 45.866C45.4941 46.075 44.7949 46.1063 43.7466 45.6862C42.2615 45.0237 40.918 44.0812 39.7896 42.9102L38.3107 44.3881C39.6365 45.7625 41.2192 46.8633 42.969 47.6281C43.6574 47.9244 44.3959 48.0869 45.145 48.1068C45.5179 48.1233 45.8902 48.0643 46.2397 47.9333C46.5892 47.8024 46.9087 47.6023 47.1789 47.3449C47.7015 46.8223 48.4394 45.5744 47.4632 43.1339C46.6985 41.3837 45.5977 39.8007 44.2232 38.4745ZM20.5742 26.6506L22.0521 25.1717C20.8808 24.0437 19.938 22.7005 19.2751 21.2157C18.857 20.1706 18.8884 19.4682 19.0963 19.2592C19.3043 19.0501 20.0046 19.0198 21.0519 19.4389C22.5367 20.1019 23.8798 21.0447 25.0078 22.2159L26.4867 20.7381C25.1609 19.3637 23.5782 18.2629 21.8284 17.4981C19.39 16.524 18.1421 17.2566 17.6185 17.7813C17.0949 18.306 16.358 19.5518 17.3342 21.9923C18.099 23.7421 19.1998 25.3248 20.5742 26.6506ZM43.7455 19.4389C44.7907 19.0209 45.4941 19.0533 45.7021 19.2602C45.9101 19.4672 45.9414 20.1685 45.5223 21.2157C44.8597 22.7005 43.9172 24.0436 42.7464 25.1717L44.2242 26.6506C45.5986 25.3248 46.6994 23.7421 47.4642 21.9923C48.4404 19.5518 47.7057 18.307 47.181 17.7824C46.6563 17.2577 45.4105 16.5282 42.97 17.4981C41.2202 18.2629 39.6375 19.3637 38.3117 20.7381L39.7896 22.2159C40.9176 21.0447 42.2607 20.1019 43.7455 19.4389ZM21.0519 45.6862C20.0067 46.1043 19.3054 46.0729 19.0953 45.8649C18.8852 45.6569 18.856 44.9567 19.2751 43.9094C19.938 42.4246 20.8808 41.0814 22.0521 39.9535L20.5742 38.4745C19.1998 39.8004 18.099 41.383 17.3342 43.1329C16.358 45.5733 17.0928 46.8181 17.6174 47.3428C17.8879 47.6003 18.2075 47.8006 18.5571 47.9317C18.9068 48.0628 19.2793 48.122 19.6524 48.1057C20.4015 48.0858 21.14 47.9234 21.8284 47.6271C23.5782 46.8623 25.1609 45.7615 26.4867 44.3871L25.0078 42.9102C23.8797 44.0811 22.5366 45.0236 21.0519 45.6862ZM32.3992 36.7438C36.5538 36.7438 40.7605 35.3077 40.7605 32.5631C40.7605 29.8185 36.5538 28.3824 32.3992 28.3824C28.2447 28.3824 24.0379 29.8174 24.0379 32.5631C24.0379 33.3052 24.3974 34.7046 26.8139 35.7404C28.5919 36.4375 30.4897 36.7784 32.3992 36.7438ZM26.1282 32.5631C26.1282 31.8252 28.5081 30.4728 32.3992 30.4728C36.2904 30.4728 38.6702 31.8252 38.6702 32.5631C38.6702 33.301 36.2893 34.6534 32.3992 34.6534C30.7734 34.6823 29.1572 34.3985 27.6385 33.8173C26.5944 33.372 26.1282 32.8662 26.1282 32.5631Z" fill="#A40F79"/>
<path d="M53.5386 47.9121C55.9608 44.5811 57.559 40.7236 58.2022 36.6556C62.1288 36.2699 64.8003 34.6426 64.8003 32.5627C64.8003 30.4829 62.1288 28.8545 58.2022 28.4688C57.5592 24.4008 55.9609 20.5432 53.5386 17.2124C56.047 14.1636 56.7786 11.1233 55.3154 9.65166C53.8522 8.18007 50.8034 8.92004 47.7547 11.4232C44.424 9.00082 40.5663 7.40293 36.4982 6.76073C36.1074 2.833 34.4811 0.162598 32.4001 0.162598C30.3192 0.162598 28.6919 2.83404 28.3062 6.76178C24.2382 7.40417 20.3806 9.00204 17.0498 11.4243C14.001 8.91586 10.9638 8.18425 9.48906 9.65271C8.01433 11.1212 8.75745 14.1647 11.2606 17.2134C8.83822 20.5441 7.24033 24.4018 6.59813 28.4699C2.67144 28.8545 0 30.4808 0 32.5627C0 34.6447 2.67144 36.2699 6.59813 36.6556C7.24052 40.7236 8.8384 44.5813 11.2606 47.9121C8.75222 50.9618 8.0206 54.0012 9.48906 55.4728C10.9575 56.9444 14.001 56.2044 17.0498 53.696C20.3807 56.1181 24.2383 57.7163 28.3062 58.3595C28.6919 62.2904 30.3192 64.9629 32.4001 64.9629C34.4811 64.9629 36.1073 62.2904 36.493 58.3648C40.561 57.7217 44.4186 56.1235 47.7495 53.7012C50.7993 56.2096 53.8386 56.9412 55.3102 55.478C56.7818 54.0148 56.0428 50.9577 53.5386 47.9121ZM53.8313 53.9939C53.3913 54.4412 51.164 54.0022 48.4957 51.59C48.3134 51.4248 48.0787 51.3292 47.8328 51.32C47.5869 51.3108 47.3457 51.3887 47.1516 51.5398C43.7412 54.1974 39.6748 55.8819 35.3841 56.4145C35.1397 56.4447 34.9138 56.5603 34.7463 56.7408C34.5788 56.9213 34.4805 57.1552 34.4685 57.4011C34.2909 60.9913 33.0272 62.8726 32.4001 62.8726C31.773 62.8726 30.5084 60.9913 30.3307 57.3948C30.3186 57.1491 30.2201 56.9155 30.0526 56.7352C29.8851 56.5549 29.6594 56.4395 29.4152 56.4093C25.1245 55.8767 21.058 54.1922 17.6476 51.5346C17.4536 51.3837 17.2126 51.306 16.967 51.3152C16.7214 51.3244 16.4868 51.4198 16.3046 51.5848C13.6363 54.0012 11.4132 54.4402 10.969 53.9886C10.5248 53.5371 10.9607 51.3214 13.3729 48.6531C13.5381 48.4708 13.6337 48.236 13.6429 47.9902C13.6521 47.7443 13.5742 47.5031 13.4231 47.309C10.7678 43.8996 9.08486 39.8351 8.55259 35.5467C8.52238 35.3025 8.40697 35.0767 8.22668 34.9093C8.04638 34.7418 7.81278 34.6433 7.567 34.6311C3.97163 34.4534 2.09033 33.1898 2.09033 32.5627C2.09033 31.9356 3.97163 30.671 7.56596 30.4933C7.81192 30.4814 8.04577 30.383 8.22628 30.2155C8.40678 30.048 8.52235 29.8221 8.55259 29.5777C9.08517 25.2871 10.7697 21.2206 13.4272 17.8102C13.5783 17.6163 13.6562 17.3754 13.6472 17.1298C13.6382 16.8841 13.5429 16.6495 13.3781 16.4672C10.9607 13.7989 10.5248 11.5748 10.9742 11.1316C11.4237 10.6885 13.6415 11.1243 16.3098 13.5355C16.4921 13.7007 16.7269 13.7963 16.9727 13.8055C17.2186 13.8147 17.4598 13.7368 17.6539 13.5857C21.063 10.9306 25.1271 9.24764 29.4152 8.71519C29.6594 8.68498 29.8851 8.56956 30.0526 8.38927C30.2201 8.20898 30.3186 7.97538 30.3307 7.7296C30.5084 4.13423 31.773 2.25293 32.4001 2.25293C33.0272 2.25293 34.2909 4.13423 34.4685 7.7296C34.4805 7.97556 34.5788 8.20941 34.7463 8.38992C34.9138 8.57042 35.1397 8.68599 35.3841 8.71624C39.6748 9.24881 43.7412 10.9333 47.1516 13.5909C47.3457 13.7421 47.5869 13.8199 47.8328 13.8107C48.0787 13.8016 48.3134 13.7059 48.4957 13.5407C51.164 11.1243 53.3902 10.6874 53.8313 11.1368C54.2723 11.5863 53.8396 13.8041 51.4274 16.4724C51.2622 16.6547 51.1666 16.8895 51.1574 17.1353C51.1482 17.3812 51.2261 17.6224 51.3772 17.8165C54.0348 21.2269 55.7193 25.2933 56.2519 29.584C56.2821 29.8284 56.3977 30.0543 56.5782 30.2218C56.7587 30.3893 56.9926 30.4877 57.2385 30.4996C60.8287 30.671 62.71 31.9356 62.71 32.5627C62.71 33.1898 60.8287 34.4534 57.2322 34.6311C56.9865 34.6433 56.7529 34.7418 56.5726 34.9093C56.3923 35.0767 56.2769 35.3025 56.2467 35.5467C55.7141 39.8374 54.0296 43.9038 51.372 47.3142C51.2208 47.5083 51.143 47.7495 51.1522 47.9954C51.1613 48.2413 51.2569 48.476 51.4222 48.6583C53.8396 51.3266 54.2755 53.5507 53.8313 53.9939Z" fill="#A40F79"/>
<path d="M32.3993 20.0223C33.2261 20.0223 34.0344 19.7771 34.7219 19.3177C35.4094 18.8583 35.9453 18.2054 36.2617 17.4415C36.5781 16.6776 36.6609 15.837 36.4996 15.026C36.3383 14.215 35.9401 13.4701 35.3555 12.8854C34.7708 12.3008 34.0259 11.9026 33.2149 11.7413C32.4039 11.58 31.5633 11.6628 30.7994 11.9792C30.0355 12.2956 29.3826 12.8315 28.9232 13.519C28.4638 14.2065 28.2186 15.0148 28.2186 15.8416C28.2186 16.9504 28.6591 18.0138 29.4431 18.7978C30.2271 19.5818 31.2905 20.0223 32.3993 20.0223ZM32.3993 13.7513C32.8127 13.7513 33.2169 13.8739 33.5606 14.1036C33.9044 14.3333 34.1723 14.6597 34.3305 15.0417C34.4887 15.4236 34.5301 15.8439 34.4495 16.2494C34.3688 16.6549 34.1697 17.0274 33.8774 17.3197C33.585 17.612 33.2126 17.8111 32.8071 17.8918C32.4016 17.9724 31.9813 17.931 31.5994 17.7728C31.2174 17.6146 30.8909 17.3467 30.6612 17.0029C30.4316 16.6592 30.309 16.255 30.309 15.8416C30.309 15.2872 30.5292 14.7555 30.9212 14.3635C31.3132 13.9715 31.8449 13.7513 32.3993 13.7513ZM32.3993 45.1063C31.5724 45.1063 30.7641 45.3515 30.0766 45.8108C29.3891 46.2702 28.8533 46.9231 28.5369 47.6871C28.2204 48.451 28.1376 49.2916 28.299 50.1025C28.4603 50.9135 28.8584 51.6584 29.4431 52.2431C30.0278 52.8278 30.7727 53.2259 31.5837 53.3873C32.3946 53.5486 33.2352 53.4658 33.9992 53.1494C34.7631 52.8329 35.416 52.2971 35.8754 51.6096C36.3348 50.9221 36.58 50.1138 36.58 49.2869C36.58 48.1781 36.1395 47.1148 35.3555 46.3308C34.5714 45.5467 33.5081 45.1063 32.3993 45.1063ZM32.3993 51.3773C31.9859 51.3773 31.5817 51.2547 31.238 51.025C30.8942 50.7953 30.6263 50.4688 30.4681 50.0869C30.3099 49.7049 30.2685 49.2846 30.3491 48.8791C30.4298 48.4736 30.6289 48.1012 30.9212 47.8088C31.2135 47.5165 31.586 47.3174 31.9915 47.2368C32.397 47.1561 32.8173 47.1975 33.1992 47.3557C33.5812 47.5139 33.9076 47.7818 34.1373 48.1256C34.367 48.4694 34.4896 48.8735 34.4896 49.2869C34.4896 49.8413 34.2694 50.373 33.8774 50.765C33.4854 51.157 32.9537 51.3773 32.3993 51.3773ZM53.3026 32.5643C53.3026 31.7374 53.0574 30.9291 52.598 30.2416C52.1387 29.5541 51.4857 29.0183 50.7218 28.7018C49.9579 28.3854 49.1173 28.3026 48.3063 28.4639C47.4954 28.6252 46.7504 29.0234 46.1658 29.6081C45.5811 30.1928 45.1829 30.9377 45.0216 31.7487C44.8603 32.5596 44.9431 33.4002 45.2595 34.1641C45.5759 34.9281 46.1118 35.581 46.7993 36.0404C47.4868 36.4997 48.2951 36.7449 49.1219 36.7449C50.2307 36.7449 51.2941 36.3045 52.0781 35.5204C52.8621 34.7364 53.3026 33.6731 53.3026 32.5643ZM49.1219 34.6546C48.7085 34.6546 48.3044 34.532 47.9606 34.3023C47.6169 34.0726 47.3489 33.7462 47.1907 33.3642C47.0325 32.9822 46.9911 32.562 47.0718 32.1565C47.1524 31.751 47.3515 31.3785 47.6439 31.0862C47.9362 30.7938 48.3087 30.5948 48.7141 30.5141C49.1196 30.4334 49.5399 30.4748 49.9219 30.6331C50.3038 30.7913 50.6303 31.0592 50.86 31.4029C51.0897 31.7467 51.2123 32.1508 51.2123 32.5643C51.2123 33.1187 50.992 33.6503 50.6 34.0424C50.208 34.4344 49.6763 34.6546 49.1219 34.6546ZM19.8573 32.5643C19.8573 31.7374 19.6121 30.9291 19.1527 30.2416C18.6933 29.5541 18.0404 29.0183 17.2765 28.7018C16.5126 28.3854 15.672 28.3026 14.861 28.4639C14.0501 28.6252 13.3051 29.0234 12.7205 29.6081C12.1358 30.1928 11.7376 30.9377 11.5763 31.7487C11.415 32.5596 11.4978 33.4002 11.8142 34.1641C12.1306 34.9281 12.6665 35.581 13.354 36.0404C14.0415 36.4997 14.8498 36.7449 15.6766 36.7449C16.7854 36.7449 17.8488 36.3045 18.6328 35.5204C19.4168 34.7364 19.8573 33.6731 19.8573 32.5643ZM15.6766 34.6546C15.2632 34.6546 14.8591 34.532 14.5153 34.3023C14.1716 34.0726 13.9036 33.7462 13.7454 33.3642C13.5872 32.9822 13.5458 32.562 13.6265 32.1565C13.7071 31.751 13.9062 31.3785 14.1985 31.0862C14.4909 30.7938 14.8633 30.5948 15.2688 30.5141C15.6743 30.4334 16.0946 30.4748 16.4766 30.6331C16.8585 30.7913 17.185 31.0592 17.4147 31.4029C17.6444 31.7467 17.767 32.1508 17.767 32.5643C17.767 33.1187 17.5467 33.6503 17.1547 34.0424C16.7627 34.4344 16.231 34.6546 15.6766 34.6546ZM3.17645 11.2701C4.74419 11.2701 6.73837 10.0002 8.28731 8.44811C10.4226 6.31179 12.0269 3.31948 10.5041 1.79563C8.9813 0.271778 5.98794 1.87924 3.85267 4.01347C1.71739 6.1477 0.112019 9.14524 1.63587 10.6691C1.83829 10.8688 2.07931 11.0251 2.3442 11.1284C2.6091 11.2317 2.89228 11.2799 3.17645 11.2701ZM5.32949 5.49447C7.06446 3.76263 8.58727 3.26409 9.00743 3.29962C9.05864 3.73232 8.54337 5.24154 6.81258 6.97547C5.08178 8.7094 3.57674 9.23303 3.13464 9.17241C3.08134 8.73971 3.5966 7.23049 5.32949 5.49447ZM61.6211 11.2701C61.9053 11.2794 62.1885 11.231 62.4535 11.1277C62.7185 11.0244 62.9598 10.8684 63.1627 10.6691C64.6855 9.14524 63.0801 6.15293 60.9449 4.01765C58.8096 1.88238 55.8183 0.280139 54.2934 1.80086C52.7685 3.32157 54.3749 6.31597 56.5102 8.45229C58.0592 10.0002 60.0586 11.2701 61.6211 11.2701ZM59.4691 5.49447C61.2041 7.2284 61.7193 8.73449 61.6639 9.17032C61.2459 9.22885 59.721 8.70522 57.9881 6.97547C56.2552 5.24572 55.7389 3.73023 55.7901 3.29962C56.2291 3.262 57.7331 3.76159 59.4691 5.49447ZM1.63483 54.4584C0.112019 55.9823 1.71739 58.9746 3.85267 61.1098C5.4016 62.6577 7.40623 63.9318 8.96353 63.9318C9.24764 63.9412 9.53071 63.8928 9.79554 63.7895C10.0604 63.6862 10.3014 63.5302 10.5041 63.3308C12.0269 61.808 10.4226 58.8157 8.28731 56.6794C6.15203 54.5431 3.16181 52.9366 1.63483 54.4584ZM5.32949 59.6341C3.59451 57.9001 3.07925 56.3941 3.13464 55.9582C3.57674 55.9237 5.0776 56.4233 6.81049 58.1531C8.54337 59.8828 9.06073 61.3931 9.00534 61.8289C8.58518 61.8895 7.06446 61.3649 5.32949 59.6341ZM56.5102 56.6752C54.3749 58.8115 52.7706 61.8038 54.2934 63.3277C54.4962 63.5268 54.7373 63.6827 55.0021 63.7858C55.2669 63.889 55.55 63.9372 55.834 63.9276C57.4017 63.9276 59.3959 62.6577 60.9449 61.1057C63.0801 58.9704 64.6855 55.9781 63.1617 54.4542C61.6378 52.9304 58.6465 54.541 56.5102 56.6752ZM59.4691 59.6341C57.7362 61.368 56.2374 61.8948 55.7932 61.8289C55.742 61.3962 56.2573 59.887 57.9881 58.1531C59.7189 56.4191 61.2459 55.9227 61.6639 55.9551C61.7162 56.3878 61.2009 57.897 59.4691 59.6341Z" fill="#A40F79"/>
</svg>
