<svg width="0" height="0">
<symbol xmlns="http://www.w3.org/2000/svg" fill="none" stroke="currentColor" stroke-width="2" stroke-linecap="round" stroke-linejoin="round" viewBox="0 0 24 24" id="sample-icon">
    <path stroke="none" d="M0 0h24v24H0z" fill="none"></path>
    <path d="M12 12m-9 0a9 9 0 1 0 18 0a9 9 0 1 0 -18 0"></path>
    <path d="M3.6 15h10.55"></path>
    <path d="M6.551 4.938l3.26 10.034"></path>
    <path d="M17.032 4.636l-8.535 6.201"></path>
    <path d="M20.559 14.51l-8.535 -6.201"></path>
    <path d="M12.257 20.916l3.261 -10.034"></path>
  </symbol>
  <symbol fill="none" xmlns="http://www.w3.org/2000/svg" viewBox="0 0 448 384" id="menu-bars-icon">
    <path d="M0 32C0 14.3 14.3 0 32 0H416C433.7 0 448 14.3 448 32C448 49.7 433.7 64 416 64H32C14.3 64 0 49.7 0 32ZM0 192C0 174.3 14.3 160 32 160H416C433.7 160 448 174.3 448 192C448 209.7 433.7 224 416 224H32C14.3 224 0 209.7 0 192ZM448 352C448 369.7 433.7 384 416 384H32C14.3 384 0 369.7 0 352C0 334.3 14.3 320 32 320H416C433.7 320 448 334.3 448 352Z" fill="currentColor"></path>
  </symbol>
  <symbol fill="none" xmlns="http://www.w3.org/2000/svg" viewBox="0 0 322 322" id="close-icon">
    <path d="M311.6 55.5998C324.1 43.0998 324.1 22.7998 311.6 10.2998C299.1 -2.2002 278.8 -2.2002 266.3 10.2998L161 115.7L55.6 10.3998C43.1 -2.1002 22.8 -2.1002 10.3 10.3998C-2.2 22.8998 -2.2 43.1998 10.3 55.6998L115.7 161L10.4 266.4C-2.1 278.9 -2.1 299.2 10.4 311.7C22.9 324.2 43.2 324.2 55.7 311.7L161 206.3L266.4 311.6C278.9 324.1 299.2 324.1 311.7 311.6C324.2 299.1 324.2 278.8 311.7 266.3L206.3 161L311.6 55.5998Z" fill="currentColor"></path>
  </symbol>
  <symbol xmlns="http://www.w3.org/2000/svg" fill="currentColor" viewBox="0 0 512 512" id="x-icon">
    <path d="M389.2 48h70.6L305.6 224.2 487 464H345L233.7 318.6 106.5 464H35.8L200.7 275.5 26.8 48H172.4L272.9 180.9 389.2 48zM364.4 421.8h39.1L151.1 88h-42L364.4 421.8z"></path>
  </symbol>
  <symbol xmlns="http://www.w3.org/2000/svg" fill="currentColor" viewBox="0 0 320 512" id="facebook-icon">
    <path d="M80 299.3V512H196V299.3h86.5l18-97.8H196V166.9c0-51.7 20.3-71.5 72.7-71.5c16.3 0 29.4 .4 37 1.2V7.9C291.4 4 256.4 0 236.2 0C129.3 0 80 50.5 80 159.4v42.1H14v97.8H80z"></path>
  </symbol>
  <symbol xmlns="http://www.w3.org/2000/svg" fill="currentColor" viewBox="0 0 448 512" id="instagram-icon">
    <path d="M224.1 141c-63.6 0-114.9 51.3-114.9 114.9s51.3 114.9 114.9 114.9S339 319.5 339 255.9 287.7 141 224.1 141zm0 189.6c-41.1 0-74.7-33.5-74.7-74.7s33.5-74.7 74.7-74.7 74.7 33.5 74.7 74.7-33.6 74.7-74.7 74.7zm146.4-194.3c0 14.9-12 26.8-26.8 26.8-14.9 0-26.8-12-26.8-26.8s12-26.8 26.8-26.8 26.8 12 26.8 26.8zm76.1 27.2c-1.7-35.9-9.9-67.7-36.2-93.9-26.2-26.2-58-34.4-93.9-36.2-37-2.1-147.9-2.1-184.9 0-35.8 1.7-67.6 9.9-93.9 36.1s-34.4 58-36.2 93.9c-2.1 37-2.1 147.9 0 184.9 1.7 35.9 9.9 67.7 36.2 93.9s58 34.4 93.9 36.2c37 2.1 147.9 2.1 184.9 0 35.9-1.7 67.7-9.9 93.9-36.2 26.2-26.2 34.4-58 36.2-93.9 2.1-37 2.1-147.8 0-184.8zM398.8 388c-7.8 19.6-22.9 34.7-42.6 42.6-29.5 11.7-99.5 9-132.1 9s-102.7 2.6-132.1-9c-19.6-7.8-34.7-22.9-42.6-42.6-11.7-29.5-9-99.5-9-132.1s-2.6-102.7 9-132.1c7.8-19.6 22.9-34.7 42.6-42.6 29.5-11.7 99.5-9 132.1-9s102.7-2.6 132.1 9c19.6 7.8 34.7 22.9 42.6 42.6 11.7 29.5 9 99.5 9 132.1s2.7 102.7-9 132.1z"></path>
  </symbol>
  <symbol fill="none" xmlns="http://www.w3.org/2000/svg" viewBox="0 0 30 30" id="search-icon">
    <path d="M25.666 24.254L21.541 19.894C23.0504 18.1031 23.8778 15.8361 23.8766 13.494C23.8766 8.00466 19.4106 3.53857 13.9212 3.53857C8.4319 3.53857 3.96582 8.00466 3.96582 13.494C3.96582 18.9833 8.4319 23.4494 13.9212 23.4494C15.982 23.4494 17.9458 22.8278 19.6248 21.6479L23.7944 26.0542C24.0415 26.3109 24.3739 26.4524 24.7302 26.4524C25.0673 26.4524 25.3872 26.3239 25.63 26.0901C25.8779 25.8512 26.0209 25.5237 26.0276 25.1795C26.0343 24.8353 25.9043 24.5025 25.666 24.254ZM13.9212 6.13564C17.9787 6.13564 21.2796 9.4365 21.2796 13.494C21.2796 17.5515 17.9787 20.8523 13.9212 20.8523C9.86375 20.8523 6.56288 17.5515 6.56288 13.494C6.56288 9.4365 9.86375 6.13564 13.9212 6.13564Z" fill="currentColor"></path>
  </symbol>
  <symbol fill="none" xmlns="http://www.w3.org/2000/svg" viewBox="0 0 12 21" id="arrow-prev">
    <path d="M11.2261 20.2922L1.5751 10.6414L11.2261 0.990499" stroke="currentColor" stroke-width="2"></path>
  </symbol>
  <symbol fill="none" xmlns="http://www.w3.org/2000/svg" viewBox="0 0 12 21" id="arrow-next">
    <path d="M0.773926 0.707764L10.4249 10.3586L0.773926 20.0095" stroke="currentColor" stroke-width="2"></path>
  </symbol>
</svg>