<svg width="30" height="30" viewBox="0 0 30 30" fill="none" xmlns="http://www.w3.org/2000/svg">
<path d="M25.666 24.254L21.541 19.894C23.0504 18.1031 23.8778 15.8361 23.8766 13.494C23.8766 8.00466 19.4106 3.53857 13.9212 3.53857C8.4319 3.53857 3.96582 8.00466 3.96582 13.494C3.96582 18.9833 8.4319 23.4494 13.9212 23.4494C15.982 23.4494 17.9458 22.8278 19.6248 21.6479L23.7944 26.0542C24.0415 26.3109 24.3739 26.4524 24.7302 26.4524C25.0673 26.4524 25.3872 26.3239 25.63 26.0901C25.8779 25.8512 26.0209 25.5237 26.0276 25.1795C26.0343 24.8353 25.9043 24.5025 25.666 24.254ZM13.9212 6.13564C17.9787 6.13564 21.2796 9.4365 21.2796 13.494C21.2796 17.5515 17.9787 20.8523 13.9212 20.8523C9.86375 20.8523 6.56288 17.5515 6.56288 13.494C6.56288 9.4365 9.86375 6.13564 13.9212 6.13564Z" fill="white"/>
</svg>
